<svg id="network" xmlns="http://www.w3.org/2000/svg" width="19.604" height="22.557" viewBox="0 0 19.604 22.557">
  <g id="Group_12" data-name="Group 12" transform="translate(0 0)">
    <path id="Path_51" data-name="Path 51" d="M40.442,12.189l2.256.448a2,2,0,1,0,.172-.855l-2.314-.459a3.283,3.283,0,0,0-.92-2.27l3-4.232a2.533,2.533,0,1,0-.711-.5L38.953,8.508a3.288,3.288,0,0,0-4.167.654L30.891,6.137a2.008,2.008,0,1,0-.561.668L34.3,9.888a3.288,3.288,0,0,0,.817,3.946L32.7,17.244a2.705,2.705,0,1,0,.665.569l2.478-3.5a3.291,3.291,0,0,0,2.692.06l2.94,4.343a2.278,2.278,0,1,0,.709-.507l-2.9-4.28A3.3,3.3,0,0,0,40.442,12.189Z" transform="translate(-27.101 0)" fill="#33f8a6"/>
  </g>
</svg>
