<svg width="9" height="10" viewBox="0 0 9 10" fill="none"
     xmlns="http://www.w3.org/2000/svg">
  <path
    d="M6.18884 1.8H7.01088C7.2289 1.8 7.43799 1.88429 7.59215 2.03432C7.74632 2.18435 7.83292 2.38783 7.83292 2.6V8.2C7.83292 8.41218 7.74632 8.61566 7.59215 8.76569C7.43799 8.91572 7.2289 9 7.01088 9H2.07863C1.86061 9 1.65152 8.91572 1.49736 8.76569C1.3432 8.61566 1.25659 8.41218 1.25659 8.2V2.6C1.25659 2.38783 1.3432 2.18435 1.49736 2.03432C1.65152 1.88429 1.86061 1.8 2.07863 1.8H2.90067"
    stroke="#AC9552" stroke-linecap="round" stroke-linejoin="round" />
  <path
    d="M5.77778 1H3.31166C3.08466 1 2.90063 1.17909 2.90063 1.4V2.2C2.90063 2.42091 3.08466 2.6 3.31166 2.6H5.77778C6.00478 2.6 6.1888 2.42091 6.1888 2.2V1.4C6.1888 1.17909 6.00478 1 5.77778 1Z"
    stroke="#AC9552" stroke-linecap="round" stroke-linejoin="round"/>
</svg>
