<svg id="Layer_1" data-name="Layer 1" xmlns="http://www.w3.org/2000/svg" viewBox="0 0 1254 231.6"><defs><style>.cls-1{fill:#b3b3b3;}.cls-2{fill:#515151;}.cls-3{fill:#525252;}.cls-4{fill:#555;}.cls-5{fill:#828282;}.cls-6{fill:#787878;}.cls-7{fill:#6e6e6e;}.cls-8{fill:#30f8a6;}.cls-9{fill:#41f148;}.cls-10{fill:#41f048;}.cls-11{fill:#6ec0a9;}.cls-12{fill:#20b97c;}.cls-13{fill:#0b8297;}.cls-14{fill:#30f7a6;}.cls-15{fill:#20b87c;}.cls-16{fill:#6ebfa9;}.cls-17{fill:#1fb97c;}.cls-18{fill:#30f7a5;}.cls-19{fill:#6fc0a9;}.cls-20{fill:#0c8297;}.cls-21{fill:#20b87b;}.cls-22{fill:#6ebfa8;}.cls-23{fill:#21b87b;}.cls-24{fill:#2ded9e;}.cls-25{fill:#30f6a5;}.cls-26{fill:#2ff3a3;}.cls-27{fill:#29e094;}.cls-28{fill:#2ff6a4;}.cls-29{fill:#39f6a7;}.cls-30{fill:#0c7f94;}.cls-31{fill:#14859c;}.cls-32{fill:#6ebea8;}.cls-33{fill:#2ff5a4;}.cls-34{fill:#20b77a;}.cls-35{fill:#2ff6a5;}.cls-36{fill:#21b77b;}.cls-37{fill:#6dbda7;}.cls-38{fill:#427666;}.cls-39{fill:#20b77b;}.cls-40{fill:#01160c;}.cls-41{fill:#2ff4a4;}.cls-42{fill:#17925f;}.cls-43{fill:#3cfdad;}.cls-44{fill:#2ff2a2;}.cls-45{fill:#02190e;}.cls-46{fill:#073c26;}.cls-47{fill:#3afcab;}.cls-48{fill:#3bfdac;}.cls-49{fill:#20b579;}.cls-50{fill:#30f0a1;}.cls-51{fill:#3af8a9;}.cls-52{fill:#2dec9e;}.cls-53{fill:#40eb46;}.cls-54{fill:#053923;}.cls-55{fill:#15859c;}.cls-56{fill:#3fe645;}.cls-57{fill:#26b87c;}.cls-58{fill:#3df3a7;}.cls-59{fill:#3dfbad;}.cls-60{fill:#0e8095;}.cls-61{fill:#096879;}.cls-62{fill:#64ad99;}.cls-63{fill:#67b09c;}.cls-64{fill:#1fa76f;}.cls-65{fill:#3d6b5e;}.cls-66{fill:#3e6e61;}.cls-67{fill:#148053;}.cls-68{fill:#09482e;}.cls-69{fill:#073924;}.cls-70{fill:#0a4c30;}.cls-71{fill:#34eda1;}.cls-72{fill:#0c5a3a;}.cls-73{fill:#13774d;}.cls-74{fill:#0d6a7c;}.cls-75{fill:#40f7aa;}.cls-76{fill:#3afbab;}.cls-77{fill:#0d5c3b;}.cls-78{fill:#01191e;}.cls-79{fill:#18915f;}.cls-80{fill:#18925f;}.cls-81{fill:#08452b;}.cls-82{fill:#3dfcac;}.cls-83{fill:#4df64c;}.cls-84{fill:#158c5b;}.cls-85{fill:#4ef04a;}.cls-86{fill:#37fcaa;}.cls-87{fill:#38fdab;}.cls-88{fill:#010302;}.cls-89{fill:#3dfdac;}.cls-90{fill:#3afaa9;}.cls-91{fill:#000100;}.cls-92{fill:#3cfaab;}.cls-93{fill:#010603;}.cls-94{fill:#36fcaa;}.cls-95{fill:#3dfdad;}.cls-96{fill:#3ffaac;}.cls-97{fill:#40faac;}.cls-98{fill:#3bfcac;}.cls-99{fill:#3cfdac;}.cls-100{fill:#3bf9aa;}.cls-101{fill:#4af64b;}.cls-102{fill:#14839a;}.cls-103{fill:#76c3b0;}.cls-104{fill:#6ebea7;}.cls-105{fill:#2ef1a1;}</style></defs><path d="M180.66,304.89h5.76a49.7,49.7,0,0,0,11,0h4.8c2.45,1,5.05.36,7.58.69,13.2,1.71,25.66,5.36,36.37,13.65a63,63,0,0,1,10.06,10.13c.51-2.58,1-3,3.63-3.1,4.33-.19,4.33-.19,4-4.45-.25-3.73.12-4.14,3.86-4.19,5.18-.07,5.18-.07,4.8-5.07-.05-.64-.08-1.27-.13-1.91-.14-1.6.69-2.37,2.2-2.54a21.13,21.13,0,0,1,2.39-.07h50.39l1.92,0a2.78,2.78,0,0,1,3.08,2.93c.42,7.09,1.08,14.17,1.54,21.26.08,1.25-.52,3.26,1.17,3.4,1.16.1.95-1.93,1.15-3,.59-3.23,1-3.82,4.31-3.91,2.06-.05,2.91-1,2.95-2.89,0-.4,0-.8.05-1.2.18-4,.73-4.51,4.71-4.58,3.15-.06,3.33-.21,3.77-3.33q0-.22,0-.24c.14-7.39,2.15-6,6.75-6q27.22-.07,54.46,0c4.29,0,4.6.32,5.11,4.49.68,5.62,1.36,11.25,2,16.59.07-.32,0-1,0-1.59.18-2.8.89-3.52,3.64-3.66,3.34-.16,3.34-.16,3.81-3.43.72-4.89.71-4.94,5.88-5.2,1.68-.08,2.46-.74,2.52-2.44s.45-3.16.5-4.76a2.22,2.22,0,0,1,2.44-2.36c.72,0,1.44,0,2.16,0h51.11c.64,0,1.28,0,1.92,0,2.2.18,2.84.85,2.61,3.09-.48,4.84-1,9.69-1.55,14.53-.59,5.3-1.26,10.6-1.78,16.53a26.21,26.21,0,0,0,6.82-6.47c4.06-5.69,9.11-10.5,13.74-15.67,6.47-7.21,15.17-10.75,24.46-12.86a57.41,57.41,0,0,1,14.71-1.84,3.05,3.05,0,0,0,2.06-.48h3.84a84.45,84.45,0,0,0,14.4,0H579c3.27,1,6.65.41,10,.67,13.95,1.08,27.82,2.82,41.64,5,3.17.49,3.68,1.28,3.82,4.45.13,2.89-.63,5.71-.49,8.6.07,1.35.12,2.61,2,2.57s1.78-1.24,1.82-2.48c0-.24,0-.48,0-.72.09-4.94.45-5.29,5.36-5.36,3.1,0,3.23-.18,3.27-3.26.08-6.23.18-6.33,6.32-6.33H767.84c5.54,0,5.7.22,5.78,5.84,0,3.28-.47,6.53-.27,9.51-.05.43,0,.36,0,.11.1-5.63.1-5.7,5.78-5.84,2-.05,2.73-.84,2.64-2.74a32.49,32.49,0,0,1,.06-4.07,2.67,2.67,0,0,1,2.73-2.75c.88-.07,1.76-.06,2.64-.06,24.86,0,49.73-.14,74.59.06a103.49,103.49,0,0,1,31.65,4.74c16.44,5.41,26.11,16.85,29.92,33.52a62.57,62.57,0,0,1,1.42,12.57c0,.55-.14,1.13.24,1.62v19.18c-.51,2.1-.32,4.27-.62,6.38-1.61,11.72-5.86,22.22-14.53,30.56-1.9,1.83-1.75,3.68-1.1,5.88,4.71,15.94,9.24,31.93,13.91,47.88a16.79,16.79,0,0,1,.49,1.85c.4,2.28-.35,3.29-2.7,3.51-1.76.16-3.52.07-5.28.06-1.59,0-2.21.59-1.7,2.21.38,1.21.76,2.44,1,3.69.5,2.41-.27,3.43-2.76,3.65-1.36.11-2.72.05-4.08.05s-1.89.59-1.51,1.95c.29,1.08.71,2.13.94,3.22.46,2.19-.25,3.19-2.48,3.4a45,45,0,0,1-4.79,0c-1.7,0-2.18.72-1.62,2.23,1.68,4.47,0,5.55-4.35,5.47s-4.41-.57-3.15,3.84c1,3.67.25,4.65-3.55,4.78-1.49,0-3.33-.64-4.38.49s.25,2.7.42,4.08c.23,1.77-.48,2.79-2.24,3a42.4,42.4,0,0,1-5,.1c-1.58,0-2.27.57-1.72,2.19.05.15.09.3.14.46,1.39,5,1,5.48-4.27,5.5-.48,0-1,0-1.44,0-1.6-.08-2.1.51-1.72,2.17,1.23,5.4,1.11,5.5-4.37,5.5H811.9c-4.56,0-4.78-.2-5.75-4.59-.63-2.89-1.32-5.76-1.9-8.66s-1.15-5.63-1.79-8.43c-.25.39-.08.84-.09,1.27-.1,3.7-.89,4.5-4.55,4.58s-3.58.09-3.62,3.59c0,4.06-.46,4.48-4.57,4.57-3,.07-3,.15-3.1,3.16-.09,4-.54,4.5-4.65,4.51H730.77c-4.18,0-4.64-.5-4.67-4.72,0-3.41,0-6.82-.31-10.24-1,1.13-.63,2.47-.68,3.71-.13,3-.53,3.48-3.5,3.57-3.61.12-3.61.12-3.72,3.76-.09,3.35-.7,3.91-4.51,3.92H596.06c-4.84,0-5.29-.45-5.29-5.39,0-8.31,0-16.62,0-24.93a4.4,4.4,0,0,0-.27-2.56c-.68-.07-1,.43-1.4.81-5.87,5.88-11.66,11.83-17.31,17.91a48.68,48.68,0,0,1-21.08,13.23,63.31,63.31,0,0,1-19,3.35,1.18,1.18,0,0,0-.65.24h-1.44a1.1,1.1,0,0,0-1.44,0h-21.6c-.56-.47-1.23-.15-1.84-.25-.51.07-1.07-.18-1.52.25H499.8c-4.8-.78-9.68-.53-14.51-1.19-12.05-1.63-24-3.58-35.9-6.31-2.57-.59-3-1.14-3.05-3.77,0-4.48.38-8.94.7-13.39.19-2.73,0-5.48.39-8.23a15.09,15.09,0,0,0-.28,3.06c-.39,2.75-1.26,3.55-4.06,3.67-3.51.14-3.51.14-4,3.61-.47,3.63-.86,4-4.52,4.07-3,.07-3,.07-3.42,3-.07.47-.15,1-.21,1.42-.43,3.23-.73,3.51-4.09,3.69-2.7.14-2.92.36-3.18,3.1-.4,4.22-.77,4.57-5,4.57H341.46c-4.47,0-4.75-.4-5.1-4.91-.23-3-.33-6.06-.74-9.07-.18-1.35-.81-2-2.22-1.87a7.77,7.77,0,0,1-1.67,0c-2.06-.21-3.23.52-3.15,2.75a10.23,10.23,0,0,1-.27,1.9c-.47,2.94-.93,3.35-3.82,3.5-3.31.17-3.35.21-3.48,3.43-.14,3.64-.74,4.24-4.5,4.24q-37.92,0-75.82,0c-3.86,0-4.54-.65-5-4.49-1.8-14.51-3.28-29.05-5.22-43.54-.1-.74.21-1.81-.75-2.07s-1.37.68-1.94,1.21a20.31,20.31,0,0,0-2.53,2.55c-3.63,4.81-8.11,8.79-12.46,12.92-5.84,5.56-11.21,11.61-16.86,17.37-7.69,7.84-17,12.57-27.37,15.65A90.88,90.88,0,0,1,150,536.49h-1.44c-.47-.43-1-.18-1.58-.25-.75.11-1.55-.25-2.26.25H127.39a1.76,1.76,0,0,0-1.92,0h-3.84a113.67,113.67,0,0,1-16.25-2.64c-13.52-3.54-24.85-10.38-33.51-21.36-.28,0-.37.06-.38.25-.17,4.7-.59,5.12-5.32,5.31-2.53.1-2.74.29-2.82,2.75,0,.47,0,1,0,1.43-.1,3.15-.74,3.81-3.8,3.95-.32,0-.64,0-1,0-2.58.13-2.79.34-2.9,3-.19,4.32-.56,4.68-5,4.68h-67.9q-18.23,0-36.47,0c-4.22,0-4.86-.62-4.87-4.88q0-29.36,0-58.73c0-.8,0-1.6,0-2.39,0-2.75-2.13-4-4.68-2.8a1.59,1.59,0,0,0-.93,1.28,11.85,11.85,0,0,0-.11,1.68c-.13,4.12-.13,4.12-4.33,4.49-1.94.17-3.25,1.75-3.76,4.53-.71,3.86-.71,3.93-4.71,4.06-1.82,0-2.68.71-2.56,2.55a13.68,13.68,0,0,1,0,1.92c-.2,2.36-.89,3-3.31,3.2a17.57,17.57,0,0,1-1.92,0c-1.55-.06-2.28.58-2.45,2.2-.29,2.64-.71,2.93-3.3,3.05-.48,0-1,0-1.44,0-3.23.05-3.28.1-3.38,3.41-.11,3.56-.7,4.15-4.24,4.26-3.39.1-3.39.1-3.44,3.59a16,16,0,0,1-.13,2.39A2.75,2.75,0,0,1-106,510.3c-.48,0-1,.06-1.44.07-3.76.1-3.76.1-3.92,3.84-.13,3.06-.8,3.72-3.92,3.83h-1c-3.08.06-3.21.19-3.26,3.29,0,.64,0,1.28,0,1.91,0,2-1,2.94-3,2.92q-.6,0-1.2,0c-2.82.09-2.93.21-3,3-.13,4.14-.61,4.63-4.82,4.63q-25.44,0-50.87,0c-4.27,0-4.8-.55-4.81-4.87,0-8.31,0-16.62,0-24.89-.1.15,0,.36,0,.56,0,5.29,0,5.34-5.41,5.7-1.64.11-2.31.8-2.25,2.38a12.16,12.16,0,0,1-.06,1.91c-.23,2.22-1.12,3.1-3.34,3.34-4.45.49-4.45.49-4.8,4.7-.22,2.6-1,3.34-3.58,3.49a13.84,13.84,0,0,1-1.44,0c-1.8-.09-2.7.71-2.61,2.55,0,.4,0,.8,0,1.2-.13,3.2-.79,3.89-4.08,3.9-11.35,0-22.71,0-34.07,0-1.6,0-3.2,0-4.79,0-3.06-.08-3.57-.59-3.62-3.72s0-6.23,0-9.35c0-1.67-.37-2.73-2.38-2.74s-2.48,1-2.4,2.7a12,12,0,0,1-.09,2.16c-.31,2.46-1,3.13-3.55,3.28-.56,0-1.12.05-1.68,0-1.59,0-2.24.72-2.36,2.31-.41,5.35-.45,5.35-5.77,5.35h-35c-1,0-1.92,0-2.88-.06a2.71,2.71,0,0,1-2.84-2.89,46.75,46.75,0,0,1,.06-7.67c.63-4.86.18-9.74.38-14.6.08-2-.8-2.68-2.72-2.61-2.55.08-5.11,0-7.67,0-1.24,0-2.44-.16-2.81-1.67v-4.31a88.32,88.32,0,0,0,.64-12.37c0-6.47.76-12.92.56-19.39-.06-1.93.4-3.81.51-5.72a2.84,2.84,0,0,1,3.26-3c3.92.08,3.91-.26,3.95-3.82,0-2.79.88-3.69,3.79-3.83,1.92-.09,2.44-.93,2.42-2.68-.07-6.92.57-5.93-5.78-6-1.36,0-2.72,0-4.08,0-2.79-.12-3.43-.83-3.58-3.66-.12-2.18.46-4.29.46-6.45,0-10.38,1-20.73,1-31.11a18,18,0,0,1,.3-2.62,3.27,3.27,0,0,1,3.59-3.09c3.41,0,3.8.07,3.83-4,0-2.46.86-3.45,3.24-3.61,2.23-.16,2.87-1.34,2.9-3.26.08-4.15,0-8.31,0-12.46,0-1,0-2.08,0-3.12.24-2.7,1.21-3.63,4-3.78,3.55-.21,3.55-.21,3.69-3.82.11-2.93.82-3.67,3.7-3.85.4,0,.8,0,1.2,0,3.15-.07,3.2-.12,3.24-3.26,0-.72,0-1.44.07-2.15a2.64,2.64,0,0,1,2.78-2.69c.48,0,1,0,1.44-.05,3.24-.07,3.24-.08,3.41-3.34.19-3.62.83-4.24,4.49-4.34,3-.07,3.11-.15,3.17-3.1a21.13,21.13,0,0,1,.11-2.39c.34-2.33,1.07-3,3.45-3.12h.48c3.91,0,4.71.52,4.67-4.42,0-2.34.93-3,3.55-3.23,3.5-.27,3.5-.27,3.58-3.71.11-4.32.71-4.9,5.1-4.95,3.44,0,3.5-.1,3.54-3.48.05-5.83.33-6.11,6.09-6.11h35c.88,0,1.76,0,2.64,0,2.36.18,3.12,1,2.94,3.38-.3,4-.08,8-.15,12,0,.39,0,.79.05,1.19a1.47,1.47,0,0,0,1.72,1.53,1.41,1.41,0,0,0,1.53-1.47c.09-1,0-2.08.07-3.12.09-3.24.72-3.86,4-3.94h.24c4.52,0,4.37.21,4.37-4.55a17.75,17.75,0,0,1,.11-2.63,2.49,2.49,0,0,1,2.36-2.31,19.22,19.22,0,0,1,2.63-.1h37.9c3.32.09,4,.81,4,4.2,0,1.69-.43,3.33-.45,5-.06,4.71,0,9.43,0,14.14,0,1.11-.12,2.38,1.55,2.44s1.73-1.27,1.79-2.49c.24-4.5.61-4.95,5-5.06,2-.05,2.63-.8,2.67-2.72.13-5.77.19-5.77,5.87-6,2.47-.07,2.68-.28,2.74-2.8v-.48c.06-6.3.06-6.3,6.48-6.3H-14.92c5.59,0,5.75.17,5.78,5.8,0,3.6.15,3.76,3,3.79,3,0,3.23-.21,3.27-3.27.08-6.25.15-6.32,6.31-6.32h48.7c1,0,1.92,0,2.88,0a2.34,2.34,0,0,1,2.53,2.55c0,1,0,2.08,0,3.12q0,55.25.07,110.51a116.58,116.58,0,0,1,4.9-19.49,63.69,63.69,0,0,1,16-24.7c4.25-4.09,8.36-8.36,12.31-12.76,1.3-1.43,2.78-2.63,4.14-4a105,105,0,0,0,10-10.67,28.42,28.42,0,0,1,5.57-5.6c3.76-2.8,6.57-6.46,9.7-9.87,5.39-5.88,10.08-12.44,16.4-17.43,9.6-7.58,20.72-11.54,32.66-13.53a49.07,49.07,0,0,1,9.05-.83A3.56,3.56,0,0,0,180.66,304.89Z" transform="translate(329 -304.89)"/><path class="cls-1" d="M573.71,304.89a.59.59,0,0,1-.67.5l-13.1,0a.55.55,0,0,1-.63-.53Z" transform="translate(329 -304.89)"/><path class="cls-1" d="M197.46,304.89a.59.59,0,0,1-.67.49H187.1a.6.6,0,0,1-.68-.49Z" transform="translate(329 -304.89)"/><path class="cls-2" d="M144.67,536.49c.7-.76,1.59-.43,2.43-.42.13.11.17.2.12.29s-.1.13-.15.13Z" transform="translate(329 -304.89)"/><path class="cls-3" d="M125.47,536.49c.64-.81,1.28-.66,1.92,0Z" transform="translate(329 -304.89)"/><path class="cls-4" d="M504.57,536.08c.69,0,1.43-.33,1.95.41H504.6c-.15-.08-.2-.17-.16-.26S504.53,536.08,504.57,536.08Z" transform="translate(329 -304.89)"/><path class="cls-5" d="M147.07,536.49a1.49,1.49,0,0,1,0-.42c.49.07,1.15-.42,1.41.42Z" transform="translate(329 -304.89)"/><path class="cls-6" d="M504.57,536.08a2.83,2.83,0,0,1,0,.41h-1.44C503.44,535.71,504.07,536.1,504.57,536.08Z" transform="translate(329 -304.89)"/><path class="cls-7" d="M528.12,536.49c.48-.64,1-.86,1.44,0Z" transform="translate(329 -304.89)"/><path class="cls-8" d="M439.3,310.63c.45-.71,1.16-.41,1.74-.41q25.8,0,51.59,0c2,0,2.1,0,1.87,2.17-1,9.3-2,18.58-3.06,27.87q-2.35,21.31-4.7,42.63-2.28,20.49-4.58,41c-1.37,12.3-2.68,24.61-4,36.92-.41,3.73-.9,7.45-1.27,11.18-.1,1-.48,1.45-1.48,1.38-.48,0-1,0-1.44,0h-77c-2.2,0-2.26,0-2.45-2.12-.41-4.45-.75-8.91-1.11-13.37q-1.44-17.79-2.86-35.59-1.33-16.85-2.64-33.69c-.39-4.94-.82-9.87-1.25-14.8-.16-1.75-.44-2-2-2-1.71,0-2.2.36-2.33,2-.7,8.44-1.37,16.88-2.06,25.32q-2,24.72-4.1,49.44c-.64,7.64-1.3,15.28-1.91,22.92-.14,1.83,0,1.93-2.12,1.93H296.06c-2.44,0-2.08-.25-2.3-2.08q-2.34-19.87-4.7-39.74-2.54-21.4-5.09-42.82c-1.35-11.5-2.67-23-4-34.51s-2.75-23-4.12-34.49q-.46-3.81-.91-7.62c-.21-1.81-.21-1.85,1.72-1.85h51.1c2.21,0,2.2-.13,2.36,2.19,1,14,2.09,28,3.12,42.06q2.25,30.36,4.46,60.71c.16,2.12.33,2.32,2.45,2.29,3.73,0,3.64.77,4.11-3.67q2.56-24.3,5.12-48.61,2.1-19.79,4.18-39.56c.4-3.73.8-7.46,1.24-11.19.21-1.75.25-1.77,2-1.77h57.1c1.81,0,1.86,0,2.08,1.78.46,3.64.87,7.29,1.3,10.94l4.62,39q1.77,15.12,3.53,30.23,1.21,10.35,2.43,20.7c.25,2.11.28,2.11,2.31,2.16,3.81.08,3.89.09,4.1-3.76.42-7.57.74-15.16,1.09-22.74q1.2-26,2.39-52c.39-8.62.75-17.24,1.15-25.86,0-.85-.2-1.77.4-2.54.81.53,1.71.26,2.56.26,16.48,0,33,0,49.43,0,.93,0,2.42-.68,2.47,1.25.08-1.57-1.08-1.28-2-1.29H480q-19.06,0-38.15,0A4.83,4.83,0,0,1,439.3,310.63Z" transform="translate(329 -304.89)"/><path class="cls-8" d="M839.09,473.18c-.79,0-1.59.11-2.39.11H787c-.48,0-1,0-1.44,0-.88.05-1.34-.3-1.29-1.24,0-.64,0-1.28,0-1.92q0-78.49,0-157c0-3.08-.33-2.87,2.8-2.87,23.19,0,46.38-.06,69.57.05,10.24.05,20.45.74,30.46,3.17,7.3,1.77,14.15,4.52,20,9.36a39.46,39.46,0,0,1,12.11,18.09c2.67,7.7,3.63,15.69,3.9,23.79.32,9.45,0,18.85-2.48,28.06a47.29,47.29,0,0,1-11.35,21.08,27.85,27.85,0,0,1-3,2.79,2.57,2.57,0,0,0-.88,3.16c1.47,4.9,2.86,9.81,4.29,14.72l10.63,36.58c.17.61.3,1.23.44,1.8-.61.59-1.28.37-1.88.37H866.93c-2.67,0-2.21.07-2.72-2.29-2.65-12.25-5.23-24.51-7.89-36.77-.74-3.43-.17-3.38-4.14-3.36h-9.6c-2.6,0-2.71.11-2.71,2.7q0,18.45,0,36.91c0,.85.3,1.75-.27,2.55a5,5,0,0,1-.22-2.58q0-17.94,0-35.87a18.4,18.4,0,0,0-.09-2.23c-.17-.31-.58.13-.31,0,.11-.06.14,0,.22.11.33.34.16.74.16,1.11q0,19.13,0,38.26A2.14,2.14,0,0,1,839.09,473.18Z" transform="translate(329 -304.89)"/><path class="cls-8" d="M114,391.74c.13-12,.84-23.94,3.77-35.66a75.36,75.36,0,0,1,7.68-19.56c7.51-13,18.85-21,33-25.36a101.3,101.3,0,0,1,22.4-3.9,150.5,150.5,0,0,1,22.77.06c10.26.8,20.29,2.66,29.74,6.91,14.27,6.41,23.73,17.27,29.3,31.71a101,101,0,0,1,5.81,24.89,190.31,190.31,0,0,1,.87,31.12c-.56,12-2.24,23.84-6.49,35.19-6.85,18.3-19.71,30-38.4,35.52-10.85,3.17-22,4.06-33.22,4a118,118,0,0,1-29.46-3.39C140,467.62,126,453.86,119.25,432.47a115.58,115.58,0,0,1-4.73-26.59C114.19,401.17,113.92,396.47,114,391.74Z" transform="translate(329 -304.89)"/><path class="cls-8" d="M631.23,334.31c-.21,6.31-.41,12.61-.65,18.92-.1,2.58-.14,2.55-2.77,2.29-17.11-1.63-34.24-3-51.44-3.33-3.28-.06-6.56-.08-9.83.13a15.69,15.69,0,0,0-4.47.82,4.65,4.65,0,0,0-1.5,7.95,12.15,12.15,0,0,0,4.71,2.28c3.74,1.18,7.57,2,11.38,2.87,9.43,2.15,18.86,4.28,28.08,7.24a88.44,88.44,0,0,1,13.1,5.3c9.86,5,15.95,12.87,17.93,23.75,2.44,13.43,2.53,26.87-1.08,40.14-3.83,14.09-12.77,23.66-26.45,28.83a85.51,85.51,0,0,1-25.56,4.94,224.72,224.72,0,0,1-36.4-1.24,339.11,339.11,0,0,1-38.78-6.34c-3.95-.89-3.27-.29-3.05-4.12q1-17.82,2-35.65c0-.55.08-1.11.08-1.67,0-1,.48-1.22,1.37-1.1,2.61.35,5.23.67,7.84,1,13.33,1.69,26.69,3.05,40.11,3.79,4.79.27,9.58.44,14.38.35a23.69,23.69,0,0,0,7.09-1.09,5.31,5.31,0,0,0,4-4.83c.18-2.31-.55-3.64-2.67-4.56a33.67,33.67,0,0,0-7.65-1.93c-8.9-1.56-17.86-2.72-26.65-4.86a91.26,91.26,0,0,1-20.51-7.28c-10.21-5.3-16.82-13.49-19.09-24.74a91.27,91.27,0,0,1,1.29-43c3.35-12,10.59-21,22.19-26.12a59.47,59.47,0,0,1,12.56-3.94A144.72,144.72,0,0,1,575,307c12.07.5,24.08,1.69,36.06,3.19,6.26.78,12.5,1.75,18.76,2.59,2.34.32,2.11.41,2,2.56Q631.54,324.85,631.23,334.31Z" transform="translate(329 -304.89)"/><path class="cls-8" d="M-269,404.12c.56-.67,1.33-.36,2-.37,2.88,0,5.76,0,8.63,0,2,0,2.24-.25,2.3-2.18q.24-8.39.42-16.77c.05-2.08-.18-2.29-2.35-2.31-3,0-6.08,0-9.11,0-.6,0-1.29.31-1.77-.35,3.84-.56,7.72,0,11-.25-3.35-.15-7.25.3-11.13-.23a71.06,71.06,0,0,1,.17-7.86q.59-15.37,1.26-30.74c0-.73-.35-1.61.49-2.18,3.46.67,7,0,8.78.18-1.83-.07-5.32.38-8.8-.17,2.28-.57,4.6-.13,6.9-.24,1.35-.07,2.72,0,4.07,0s1.74-.37,1.86-1.9c.06-.8,0-1.6.06-2.4l.54-23.72c.06-2.23.06-2.25,2.24-2.25H-214c2.1,0,2.12,0,2.08,2.1q-.3,12.69-.64,25.39c-.07,2.66,0,2.78,2.54,2.79,3.92,0,7.83,0,11.75,0,2.15,0,2.29-.15,2.35-2.33q.38-12.69.71-25.39c0-.48,0-.95,0-1.43,0-.81.39-1.16,1.18-1.14.48,0,1,0,1.44,0h36.69c2.81,0,2.63-.16,2.56,2.58q-.28,12-.58,23.95c0,.56,0,1.12,0,1.68,0,1.8.24,2,2.11,2.07,2.64.05,5.28,0,7.92,0,1.17,0,2.39-.29,3.53.24-3.93.55-7.87.08-10.08.19,2.21-.14,6.15.42,10.07-.19.77.43.39,1.15.37,1.72q-.72,18.9-1.51,37.82c-.09,2.05-.12,2.07-2.22,2.08-3,0-6.07,0-9.11,0-2,0-2.21.23-2.27,2.19-.17,5.67-.3,11.34-.42,17,0,1.75.24,2,2.11,2.06,3.12,0,6.24,0,9.35,0,2.28,0,2.31,0,2.26,2.17q-.43,18.81-.89,37.6c0,.64.35,1.47-.56,1.88a54.35,54.35,0,0,0-12.36.06c-1.1.61-1.05,1.66-1.07,2.72q-.28,11.13-.59,22.28c0,.56,0,1.11,0,1.67,0,.77-.33,1.2-1.14,1.18-.48,0-1,0-1.44,0h-37.66c-1.74-.05-1.77-.06-1.74-1.72,0-1.83.16-3.67.21-5.5.17-6,.31-12,.51-18,0-1.22-.05-2.23-1.39-2.67-4.16-.68-8.34-.15-12.51-.28-.74,0-1.58-.34-2.26.3-1.11.63-1,1.7-1,2.74q-.27,10.89-.58,21.77c0,.64-.07,1.28-.06,1.91,0,1-.33,1.52-1.4,1.42-.47,0-1,0-1.43,0h-37.13c-1.69-.06-1.73-.06-1.7-1.74.09-4.7.22-9.41.33-14.11.08-3.27.13-6.54.27-9.81a2.17,2.17,0,0,0-1.09-2.19c-2.71-.71-5.47-.08-8.19-.33-1.14-.1-2.39.5-3.4-.48-.13.24,0,.56-.29.75-.95-.54-.46-1.43-.44-2.14.15-5.11.36-10.21.56-15.32.29-7.1.57-14.2.88-21.3,0-.84-.25-1.76.4-2.52,2.74.61,5.5.13,8.25.28.86.05,1.73-.05,2,0C-261.82,404.18-265.46,404.72-269,404.12Z" transform="translate(329 -304.89)"/><path class="cls-8" d="M649,391.85V313.21c0-.56,0-1.12,0-1.68-.06-.93.4-1.3,1.29-1.26.56,0,1.12,0,1.68,0H768.14c3.31,0,3-.28,3,2.93q0,19.19,0,38.36c0,2.81.11,2.63-2.58,2.63H707.86c-3.24,0-3.24,0-3.24,3.35,0,3.19,0,6.39,0,9.59,0,2.57.11,2.68,2.71,2.68h45.59c3.91,0,3.48-.5,3.48,3.41q0,18.33,0,36.68v1.19c0,2,0,2.08-2.16,2.08H707.94c-3.32,0-3.32,0-3.32,3.21,0,3.44,0,6.87,0,10.31,0,2.74.06,2.81,2.84,2.81h59.75c3.94,0,3.94,0,3.94,3.89v36.68c0,.56,0,1.12,0,1.68.09,1.09-.27,1.68-1.47,1.56a13.83,13.83,0,0,0-1.44,0H652.1c-3.5,0-3.05.36-3.05-3.07Q649,431,649,391.85Z" transform="translate(329 -304.89)"/><path class="cls-8" d="M-128.83,310.67c.82-.74,1.81-.38,2.72-.38q46.55,0,93.09,0h19c2.35,0,2.37,0,2.37,2.34v40c0,2.56.18,2.5-2.46,2.5H-69.81c-4,0-3.8-.38-3.8,3.73,0,7.27,0,14.54,0,21.82,0,2.46.1,2.56,2.58,2.56h42.71c1.75.05,1.79.05,1.8,1.7q0,20.73,0,41.47c0,1.62-.06,1.66-1.81,1.66-7.28,0-14.56,0-21.84,0q-10.44,0-20.87,0c-2.48,0-2.57.09-2.57,2.56q0,20,0,40c0,2.84.31,2.6-2.54,2.6h-50.14c-3.09,0-2.86.36-2.86-2.8q0-78.75,0-157.5c0-.77-.28-1.6.29-2.31a6.67,6.67,0,0,0,2.84.2l109.83,0a9.85,9.85,0,0,1,2.17,0c-.25.05-1,0-1.68,0H-126.47A5,5,0,0,1-128.83,310.67Z" transform="translate(329 -304.89)"/><path class="cls-8" d="M55.17,311.2c0,.87.12,1.75.12,2.62q0,55.73,0,111.45c0,3.27,0,3.27,3.3,3.27h47.5c.56,0,1.12,0,1.68,0,.9,0,1.35.32,1.29,1.26,0,.4,0,.8,0,1.2v39.78c0,.32,0,.64,0,1,.11,1.09-.27,1.69-1.46,1.57-.48,0-1,0-1.44,0H2.29c-2.9,0-2.56.12-2.56-2.6q0-59.44,0-118.88V313.23c0-.4,0-.8,0-1.2.05-1.78.05-1.82,1.91-1.82H53c.47,0,1,.08,1.43.12-.22.8-.89.53-1.39.53q-25.42,0-50.84,0c-.18,0-.32-.21-.66,0,17.1,0,34,0,51,0,1.58,0,2.23.33,2.23,2.09q-.07,56.19,0,112.39c0,.24,0,.47,0,.43v-1.93q0-55,0-110C54.72,313,54.26,312,55.17,311.2Z" transform="translate(329 -304.89)"/><path class="cls-9" d="M640.41,401.22V323.08c0-.64,0-1.28,0-1.92,0-.9.33-1.35,1.26-1.3h.48c1.58.11,3.52-.65,4.65.32s.45,3,.45,4.56q0,73.22,0,146.44c0,4.37.29,3.9,4,3.9H759.42c3.36,0,3.05-.37,3.06,3.1,0,1-.06,2.08,0,3.12.1,1.29-.51,1.7-1.7,1.6-.64,0-1.28,0-1.92,0H643c-2.85,0-2.61.12-2.61-2.58Z" transform="translate(329 -304.89)"/><path class="cls-9" d="M-8.91,401.28q0-39.31,0-78.62c0-3.11-.28-2.86,2.81-2.86,4.05,0,4,0,4,4V471.49c0,3.57,0,3.57,3.6,3.57h96c3.21,0,2.91-.32,2.93,3,0,1,0,1.91,0,2.87,0,1.91,0,1.91-2,1.95H-6c-3.31,0-2.93.25-2.93-3Q-8.93,440.59-8.91,401.28Z" transform="translate(329 -304.89)"/><path class="cls-9" d="M325.5,482.89H288.31c-.48,0-1,0-1.44,0-1.08.1-1.58-.33-1.68-1.46-.19-2.14-.52-4.28-.77-6.42q-2.51-21.3-5-42.59c-1.67-14-3.39-28.07-5.05-42.1-2-17.13-4-34.27-6-51.41-.67-5.7-1.39-11.41-2.1-17.11-.24-1.95-.23-2,1.81-2,1.52,0,3,0,4.56,0,1.09,0,1.54.38,1.67,1.49.56,5.16,1.2,10.31,1.82,15.46q1.61,13.56,3.22,27.12,1.54,13.09,3.07,26.18,1.8,15.23,3.59,30.45l4.11,34.74q1,8.44,2,16.89c.06.55.2,1.1.28,1.65a1.35,1.35,0,0,0,1.44,1.3c.64,0,1.28,0,1.92,0h67.42c3.11,0,2.87-.31,2.71,2.83-.08,1.58.26,3.57-.73,4.6s-3,.36-4.61.36C348.86,482.91,337.18,482.89,325.5,482.89Z" transform="translate(329 -304.89)"/><path class="cls-9" d="M239.14,469.05c0,1-.85,1.28-1.42,1.77-7.49,6.33-16.22,10.12-25.66,12.43-9.93,2.43-20,3.08-30.23,3-11-.08-21.86-1.15-32.42-4.46-19.1-6-31.57-18.73-38-37.51a12.5,12.5,0,0,1-.64-4.25q0-5.39,0-10.79c0-2.2,0-2.33-2.22-2.46-1.18-.07-1.51-.61-1.62-1.6-.32-3-.75-6-1-9.05a182.29,182.29,0,0,1,1.36-41.36c1.63-10.41,4.56-20.41,10-29.53a15,15,0,0,1,2.58-3.61,2.14,2.14,0,0,1,.06,2.16,99.41,99.41,0,0,0-6.24,24.54A163.38,163.38,0,0,0,112.36,387a180.71,180.71,0,0,0,1.14,26.31c1.27,10.19,3.54,20.12,8,29.48,7.62,16.18,20.28,26.36,37.28,31.43A104.54,104.54,0,0,0,185,478.27c11,.39,22.07,0,32.94-2.24a76.1,76.1,0,0,0,19-6.47C237.59,469.22,238.23,468.59,239.14,469.05Z" transform="translate(329 -304.89)"/><path class="cls-10" d="M-137.81,401.52V323.4c0-.56,0-1.12,0-1.68.05-1.81.05-1.82,1.92-1.86,1.2,0,2.4,0,3.6,0,1,0,1.53.28,1.45,1.36,0,.64,0,1.28,0,1.92V471.45c0,3.61,0,3.61,3.51,3.61h42.45c2.79,0,2.63-.28,2.63,2.54,0,1.19,0,2.39,0,3.59s-.27,1.86-1.59,1.68a7.69,7.69,0,0,0-1,0h-50.36c-2.87,0-2.67.24-2.67-2.77Z" transform="translate(329 -304.89)"/><path class="cls-8" d="M-16.09,491.4c-.57-.7-.29-1.53-.29-2.3q0-64.71,0-129.42c0-.48,0-1,0-1.44-.05-1,.33-1.4,1.38-1.47,4.34-.31,4.34-.34,4.34,4V481.06c0,3.59,0,3.59,3.56,3.59H90c3.25,0,2.93-.34,2.89,3,0,1.32.62,2.95-.39,3.88s-2.45.28-3.71.28q-51.1,0-102.19,0c-.9,0-1.9.38-2.7-.39a4.6,4.6,0,0,1,2.35-.22H88.93c.71,0,1.42-.2,1.74,0-.48,0-1.35,0-2.23,0H-13.26A6,6,0,0,0-16.09,491.4Z" transform="translate(329 -304.89)"/><path class="cls-9" d="M775.68,401.29V322.91c0-.4,0-.8,0-1.2,0-1.8,0-1.81,1.9-1.85q1.56,0,3.12,0c1.78,0,1.82.05,1.82,1.93,0,6.31,0,12.62,0,18.93V472.33c0,2.5.22,2.73,2.75,2.73H828c.56,0,1.13,0,1.68,0,1.13-.1,1.61.36,1.58,1.5,0,1.68,0,3.36,0,5,0,.9-.34,1.34-1.27,1.28-.48,0-1,0-1.44,0H778.39c-.48,0-1,0-1.44,0-.91,0-1.31-.37-1.27-1.28,0-.64,0-1.28,0-1.92Z" transform="translate(329 -304.89)"/><path class="cls-11" d="M-18,492.83c.91.94,2.09.62,3.18.62q39.82,0,79.65,0c5.83,0,11.67,0,17.51,0,2.19,0,2.22,0,2.21,2.29,0,4,.49,3.42-3.43,3.42H-21.77c-3.35,0-3,.33-3-2.91q0-32.24,0-64.48c0-15.74.06-31.48.07-47.22,0-5.43-.06-10.86-.06-16.3,0-1.84,0-1.83,1.86-1.89a14.32,14.32,0,0,0,3.81-.22.65.65,0,0,1,.78.68c.05.72,0,1.43,0,2.15q0,60.52,0,121C-18.25,491-18.55,491.94-18,492.83Z" transform="translate(329 -304.89)"/><path class="cls-9" d="M384.48,373.66c.71.26.53.91.57,1.42.68,8.43,1.32,16.87,2,25.3q1.35,16.71,2.72,33.42,1,12.76,2,25.54c.34,4.38.7,8.76,1,13.14.2,2.49.29,2.59,2.93,2.59h50.12c6.79,0,13.58,0,20.38,0a5.17,5.17,0,0,1,2.44.22c.15,2.22-.39,4.39-.55,6.59a1,1,0,0,1-1.1,1H388.64c-.4,0-.8,0-1.2,0-1,.08-1.45-.28-1.52-1.32-.18-2.55-.48-5.08-.68-7.63-.72-9.15-1.41-18.31-2.14-27.46-.69-8.67-1.37-17.35-2.16-26-.5-5.46.16-10.85.58-16.26.51-6.6,1.09-13.2,1.65-19.8q.4-4.89.86-9.78C384.06,374.27,384,373.84,384.48,373.66Z" transform="translate(329 -304.89)"/><path class="cls-9" d="M570.06,429.72c-2.36.28-5-.63-7.64-1.09-9.52-1.63-19.12-2.88-28.49-5.3a93.87,93.87,0,0,1-17.58-6.26c-11.55-5.61-18.54-14.75-20.65-27.34a96.08,96.08,0,0,1,1.23-39.23,45.9,45.9,0,0,1,7.54-16.18c.25-.34.42-.76.87-.52s.33.68.21,1.07a79,79,0,0,0-3.61,16.28c-1.07,10.53-1.14,21,1.18,31.44,2.59,11.64,9.21,20.16,19.74,25.71,7.13,3.76,14.77,6,22.56,7.86s15.86,2.93,23.81,4.3a57.61,57.61,0,0,1,7.49,1.58c2.29.71,2.84,1.32,2.86,3,0,1.94-.68,2.93-2.74,3.72A21.63,21.63,0,0,1,570.06,429.72Z" transform="translate(329 -304.89)"/><path class="cls-12" d="M22.3,507.8H-30c-2.4,0-2.4,0-2.42-2.3,0-.32,0-.64,0-1q0-35.84,0-71.67c0-3.19-.31-3,2.94-3s2.93-.18,2.93,3v64.24c0,.63,0,1.28,0,1.91.11,1.42.48,1.79,1.92,1.9.63.05,1.28,0,1.92,0H74c3.2,0,3-.29,2.93,3,0,4.43.63,3.83-3.76,3.83Q47.73,507.84,22.3,507.8Z" transform="translate(329 -304.89)"/><path class="cls-13" d="M-48.24,523.53c-.62-.69-.34-1.53-.34-2.29q0-35.12,0-70.23c0-.4,0-.8,0-1.2,0-1.11.44-1.6,1.58-1.55s2.4,0,3.59,0,1.41.49,1.36,1.46c0,.64,0,1.28,0,1.92V514c0,3.31,0,3.31,3.33,3.31H57.7c3.34,0,3.06-.33,3,3.13,0,4,.5,3.54-3.58,3.54q-51.33,0-102.67,0c-.91,0-1.92.38-2.72-.41a3.33,3.33,0,0,1,1.87-.21c8.86-.1,17.73-.26,26.58-.16,20.78.25,41.56,0,62.34.15,5.27,0,10.54,0,15.81,0H32c-15.51,0-31,0-46.53,0-10.37,0-20.74.08-31.12,0A5.08,5.08,0,0,0-48.24,523.53Z" transform="translate(329 -304.89)"/><path class="cls-9" d="M615.43,470.58c.06.95-.78,1.3-1.32,1.8-5.67,5.19-12.42,8.35-19.73,10.43a101.44,101.44,0,0,1-25.82,3.44,263.34,263.34,0,0,1-41.8-2.8c-9.26-1.29-18.47-2.88-27.59-4.93l-1.4-.31c-2.24-.54-2.18-.54-2-2.85.41-6.45.77-12.91,1.14-19.36.35-6.14.66-12.28,1-18.41.1-1.83.15-1.85,2-1.6.4.05.79.16,1.18.2,3.45.35,3.25-.07,3,3.77-.46,8.54-1,17.06-1.45,25.59,0,.64-.06,1.28-.07,1.92,0,1.91,0,2,1.87,2.41C513.23,472,522.1,473.65,531,475a272.23,272.23,0,0,0,45.36,3.39c10.35-.19,20.57-1.21,30.44-4.59a44.4,44.4,0,0,0,7.49-3.17C614.69,470.41,615,470.23,615.43,470.58Z" transform="translate(329 -304.89)"/><path class="cls-8" d="M14.21,515.49H-38.1c-2.27,0-2.28,0-2.29-2.41V442.36c0-3.21-.25-3,3-2.94,3.64,0,3.18-.38,3.18,3.19q0,31.65,0,63.29c0,.64,0,1.28,0,1.92,0,1.22.65,1.73,1.79,1.75.72,0,1.44,0,2.16,0H66c3.27,0,3-.38,3,2.92s.42,3-2.9,3Z" transform="translate(329 -304.89)"/><path class="cls-8" d="M278,491a66.63,66.63,0,0,1-1.24-9c-1.95-16.09-3.81-32.2-5.71-48.3q-.75-6.3-1.51-12.6a13.41,13.41,0,0,1,0-3.58,187.12,187.12,0,0,0,1.76-29.63c0-1.47-.87-3,.5-4.34q1.21,10,2.43,20,1.82,15.35,3.62,30.69l4.11,35c.49,4.12,1,8.25,1.46,12.37.38,3.11.4,3.11,3.5,3.11h68.6c3.48,0,3.15-.36,2.77,3.07-.13,1.24.15,2.56-.53,3.72-1.13-.54-2.26,0-3.39,0q-36.81-.06-73.61,0A4.43,4.43,0,0,1,278,491Z" transform="translate(329 -304.89)"/><path class="cls-8" d="M639,484.11c.75.91,1.79.54,2.7.54q27.35,0,54.7,0h55.66c.56,0,1.12,0,1.68,0,.85,0,1.37.23,1.35,1.2,0,1.6,0,3.2,0,4.8,0,.78-.31,1.19-1.13,1.17-.56,0-1.12,0-1.68,0q-58.29,0-116.59,0c-.82,0-1.76.43-2.46-.4a4.6,4.6,0,0,1,2.35-.22H751.2c.71,0,1.42-.05,1.6,0H636.06a5.91,5.91,0,0,0-2.83.23c-.57-.71-.28-1.54-.29-2.31,0-11.4,0-22.8,0-34.2a11.77,11.77,0,0,1,1.05-5.09,53.31,53.31,0,0,0,3.56-11.38c.17-.81,0-1.81,1-2.29a5.54,5.54,0,0,1,.21,2.59q0,21.4,0,42.83C638.74,482.41,638.46,483.31,639,484.11Z" transform="translate(329 -304.89)"/><path class="cls-14" d="M53.05,531.25c-.74.72-1.67.35-2.5.35q-51.81,0-103.63,0c-.56,0-1.12,0-1.68,0-.77,0-1.21-.29-1.18-1.12,0-.55,0-1.11,0-1.67V458.36c0-3-.17-2.64,2.75-2.64,3.34,0,3-.21,3,2.95q0,31.63,0,63.27v1.2c0,2.26.18,2.44,2.49,2.44q14,0,28.06,0H51.56c1.76.06,1.85.06,1.8,1.71,0,1.32.39,2.69-.31,4-.89-.56-1.87-.27-2.8-.27l-101.91,0a11.81,11.81,0,0,1-2.05,0H29.14c7.19,0,14.38,0,21.58,0C51.49,531,52.32,530.76,53.05,531.25Z" transform="translate(329 -304.89)"/><path class="cls-8" d="M607.22,480.05c-.36,1.44-1.59,2.15-2.63,3a49.83,49.83,0,0,1-18.21,8.83A105.48,105.48,0,0,1,560,495.18c-15.24.26-30.34-1.27-45.39-3.51-8.14-1.21-16.23-2.71-24.26-4.57-2.2-.51-2.22-.51-2.1-2.83q1-18.42,2.06-36.85c0-.4.09-.8.09-1.19,0-1.12.46-1.65,1.62-1.38a1,1,0,0,0,.24,0c3.38.25,3.41.25,3.23,3.63-.5,9.17-1,18.35-1.54,27.52-.16,3.15-.36,3,2.68,3.66a340,340,0,0,0,43.26,7.06A243.36,243.36,0,0,0,567.72,488c10-.15,19.95-1.15,29.55-4.27a40,40,0,0,0,8.59-3.62A1.32,1.32,0,0,1,607.22,480.05Z" transform="translate(329 -304.89)"/><path class="cls-15" d="M622.62,465.79a6.49,6.49,0,0,1,.14,2.28q0,14.74,0,29.48c0,.64,0,1.29,0,1.92a1.49,1.49,0,0,0,1.56,1.49c.72,0,1.44,0,2.16,0H735.66c3.66,0,3.28-.42,3.27,3.38s.46,3.45-3.43,3.45H619.89c-3.34,0-3,.25-3-2.93,0-10.14,0-20.29,0-30.44a5.29,5.29,0,0,1,1.55-4.07,42.86,42.86,0,0,0,2.84-3.55C621.59,466.41,621.8,465.84,622.62,465.79Z" transform="translate(329 -304.89)"/><path class="cls-8" d="M231.74,478.26a16.35,16.35,0,0,1-3.33,2.94c-8,6.11-17.08,9.64-26.83,11.6a134.35,134.35,0,0,1-34.38,2.13A98.5,98.5,0,0,1,139.93,490c-11.08-3.88-20.36-10.23-27.34-19.78a8.78,8.78,0,0,1-1.89-5.73c.13-5.1,0-10.19,0-15.53,1,.4,1,1.2,1.28,1.77a60.72,60.72,0,0,0,12.42,18.35c7.27,7.21,16,11.84,25.73,14.74a102.18,102.18,0,0,0,25.28,4c11.21.45,22.38.15,33.42-2.11a73.66,73.66,0,0,0,20.53-7.15A2.13,2.13,0,0,1,231.74,478.26Z" transform="translate(329 -304.89)"/><path class="cls-13" d="M601.07,523.52c-.57-.61-.33-1.36-.33-2,0-10,0-20,0-30a5.93,5.93,0,0,1,2.39-5.18L607,483.4a3.65,3.65,0,0,1,.29,2.05q0,14.25,0,28.51c0,.64,0,1.28,0,1.92a1.32,1.32,0,0,0,1.36,1.37c.72,0,1.44,0,2.15,0H719.9c3.33,0,3.05-.36,3,3.13,0,4,.54,3.54-3.58,3.54H604.73c-1,0-2.07-.08-3.11-.13.42-.93,1.25-.5,1.87-.5q58.05,0,116.09,0c.53,0,1.14-.28,1.36,0-.35,0-1,0-1.65,0-28.3-.06-56.61,0-84.91,0q-15.35-.06-30.69,0A7.46,7.46,0,0,0,601.07,523.52Z" transform="translate(329 -304.89)"/><path class="cls-16" d="M631.24,456.07v34.22c0,.56,0,1.12,0,1.68a1.37,1.37,0,0,0,1.49,1.5h111.8c2.08,0,2.12,0,2.11,2.15,0,4.18.5,3.56-3.54,3.56q-57.81,0-115.64,0c-3.31,0-2.89.25-2.9-3,0-10.06,0-20.13,0-30.2a5.39,5.39,0,0,1,1.66-4.25C628,460,629.35,458,631.24,456.07Z" transform="translate(329 -304.89)"/><path class="cls-16" d="M268.13,427a6.3,6.3,0,0,1,.78,3.09q2.16,18,4.27,35.9,1.45,12.36,2.91,24.73c.33,2.77.34,2.78,3.25,2.78h68.58c2.2,0,2.2,0,2,2.07-.3,3.65-.3,3.65-3.94,3.65H272.41c-3.46,0-2.84.11-3.18-2.69q-2.6-21.76-5.14-43.52c-.37-3.09-.73-6.18-1.15-9.26a5.2,5.2,0,0,1,.23-2.82,79.92,79.92,0,0,0,4.41-13.4C267.61,427.39,267.79,427.3,268.13,427Z" transform="translate(329 -304.89)"/><path class="cls-12" d="M478.74,480c-.2,4.31-.42,8.61-.6,12.92-.1,2.4-.06,2.42,2.33,3a332.4,332.4,0,0,0,34.88,6.19,250.08,250.08,0,0,0,39,2.15c11.49-.36,22.76-1.92,33.4-6.61.83-.36,1.59-1.1,2.76-.86-.19,1.26-1.18,1.72-1.94,2.32-6.27,5-13.52,7.8-21.23,9.58a104.34,104.34,0,0,1-21.14,2.48,251.84,251.84,0,0,1-36.1-1.88c-11.58-1.4-23.08-3.28-34.46-5.82-.62-.14-1.25-.28-1.87-.44-1.72-.45-1.69-.46-1.56-2.3q.38-5.37.68-10.74c.24-4.15.42-8.3.63-12.44.12-2.38.12-2.38,2.42-2.44a3.29,3.29,0,0,0,2.29-.46c1.31.21.67,1.23.69,1.86A10.05,10.05,0,0,1,478.74,480Z" transform="translate(329 -304.89)"/><path class="cls-8" d="M614.88,474.4a7.08,7.08,0,0,1,.23,2.75q0,14.49,0,29c0,.56,0,1.12,0,1.68,0,1.16.52,1.8,1.74,1.78.64,0,1.28,0,1.92,0H728.15c3.26,0,3-.34,2.94,2.95s.41,3-2.93,3H611.84c-3.25,0-2.9.32-2.9-3,0-9.43,0-18.86,0-28.28a6.23,6.23,0,0,1,1.81-4.71C612.18,478,613.4,476.24,614.88,474.4Z" transform="translate(329 -304.89)"/><path class="cls-17" d="M261.13,445.44c.88,2.21.8,4.3,1.05,6.31,1.31,10.53,2.52,21.07,3.76,31.61.54,4.6,1.06,9.2,1.59,13.79a1.94,1.94,0,0,1,0,.24c.38,3.59.38,3.59,4.07,3.59H339.5c3,0,3.18-.5,2.77,3-.56,4.71.44,3.84-4.24,3.85q-36.21.06-72.43,0h-1.68c-1.88,0-2.05.08-2.3-2.1-1-9.2-2.15-18.39-3.25-27.58q-1.32-11.06-2.68-22.11a3.29,3.29,0,0,1,.31-2.53A83.73,83.73,0,0,0,261.13,445.44Z" transform="translate(329 -304.89)"/><path class="cls-18" d="M598.8,490.54a6.33,6.33,0,0,1,.29,2.7q0,14.49,0,29c0,.64,0,1.28,0,1.92a1.35,1.35,0,0,0,1.52,1.45H713.11c2.35,0,2.38,0,2.36,2.37,0,4.28.55,3.64-3.71,3.64q-57.68,0-115.35,0c-3.44,0-3,.36-3-3.1,0-9.74,0-19.49,0-29.23a5.1,5.1,0,0,1,1.44-3.87C596.15,494,597.32,492.36,598.8,490.54Z" transform="translate(329 -304.89)"/><path class="cls-13" d="M463.22,488.59c0,1.68.5,3.16-.2,4.64a3.45,3.45,0,0,0-.13,1.41c0,4.87.06,9.74-.42,14.59-.23,2.31-.09,2.34,2.16,2.89a316.38,316.38,0,0,0,31.29,5.75,256.37,256.37,0,0,0,42.52,2.68c9.28-.27,18.47-1.3,27.36-4.23,1.74-.57,3.44-1.26,5.15-1.93.68-.26,1.31-.63,2.06-.28.18.75-.47.93-.87,1.24-5.88,4.65-12.67,7.37-19.88,9.12A105,105,0,0,1,534.51,527a147.13,147.13,0,0,1-16.53.23c-8.53-.37-17.05-1-25.53-2.1-11.42-1.42-22.74-3.33-34-5.88-2.42-.55-2.47-.53-2.34-2.9.37-6.85.74-13.7,1.18-20.55.15-2.31.25-2.3,2.52-2.36s2.39-.15,2.51-2.44c0-.63.1-1.26.19-1.88C462.57,489,462.78,488.93,463.22,488.59Z" transform="translate(329 -304.89)"/><path class="cls-19" d="M593.39,492.23a5.17,5.17,0,0,1-2.07,1.54c-6.57,3.87-13.75,6-21.2,7.23-11.34,1.93-22.77,1.89-34.2,1.24a327.44,327.44,0,0,1-52.86-7.48c-4-.89-3.3-.34-3.08-4.09.56-9.4,1-18.81,1.58-28.22.16-2.95.37-5.9.47-8.85,0-1.17.45-1.59,1.6-1.37a24.9,24.9,0,0,0,3.09.41c1.22.07,1.64.61,1.55,1.84-.28,4.14-.47,8.29-.71,12.43-.36,6.22-.76,12.44-1.1,18.66-.12,2.28,0,2.33,2.22,2.87,9.41,2.21,18.92,3.94,28.49,5.34a267.72,267.72,0,0,0,45.87,3,95.74,95.74,0,0,0,27.81-4.5C591.65,492,592.44,491.54,593.39,492.23Z" transform="translate(329 -304.89)"/><path class="cls-12" d="M95.84,484.66h3.35c2.77,0,2.85-.12,2.9-2.8a9.73,9.73,0,0,1,.18-3.23c.85,0,1,.65,1.32,1.07,7.82,10.19,18.17,16.64,30.36,20.31a103.67,103.67,0,0,0,23.8,4,160.48,160.48,0,0,0,22-.17c10-.77,19.79-2.67,29.05-6.71,1.24-.54,2.42-1.22,3.65-1.79.62-.29,1.22-.82,2.1-.41a8.7,8.7,0,0,1-2.65,2.65c-7.63,5.7-16.28,9.06-25.51,11.09-11.57,2.54-23.3,2.86-35.07,2.34a92.83,92.83,0,0,1-29.51-5.71,54.78,54.78,0,0,1-24-17.31c-.59-.75-1.14-1.54-1.69-2.33A5,5,0,0,1,95.84,484.66Z" transform="translate(329 -304.89)"/><path class="cls-9" d="M912.31,482.58a5.36,5.36,0,0,1-2.61.29H858.14c-2,0-2.09,0-2.51-2-1.37-6.32-2.7-12.64-4.06-19s-2.7-12.65-4.07-19c-.54-2.47-.56-2.49-2.93-2.5-3.45,0-3,.13-3-3.16,0-1.2,0-2.4,0-3.59a1,1,0,0,1,1.16-1.17h10.56c1.16,0,1.14.9,1.3,1.65q1.62,7.5,3.23,15,2.46,11.47,4.9,22.95c.62,2.92.63,2.92,3.59,2.92h41c.56,0,1.12,0,1.68,0a1.35,1.35,0,0,1,1.52,1.18C911.08,478.32,911.68,480.38,912.31,482.58Z" transform="translate(329 -304.89)"/><path class="cls-20" d="M196.65,512.81a27,27,0,0,1-5.74,4.13c-8.41,4.92-17.57,7.6-27.14,9a136.19,136.19,0,0,1-24.38,1.35c-11.63-.41-23.11-1.75-34-6.08-9.95-3.94-18.38-9.92-24.7-18.67a9.48,9.48,0,0,1-.61-1s0-.14.13-.54c1.14,0,2.38,0,3.62,0,2.21,0,2.41-.24,2.43-2.52,0-1.26,0-2.52,0-3.7.7-.36.89.09,1.1.38,9.65,13,23,19.86,38.55,23.11a132.83,132.83,0,0,0,32.45,2.27c10.65-.39,21.16-1.86,31.24-5.59,1.49-.56,3-1.22,4.43-1.83A2.85,2.85,0,0,1,196.65,512.81Z" transform="translate(329 -304.89)"/><path class="cls-13" d="M245.86,523.09a24.09,24.09,0,0,1-.83-5.4c-1-7.83-1.87-15.67-2.8-23.51-.81-6.81-1.61-13.62-2.44-20.42a3.49,3.49,0,0,1,.74-2.66c1.58-2.13,3.57-3.86,5.42-6.05a15.46,15.46,0,0,1,.85,4.68c1,7.91,1.91,15.83,2.84,23.75.84,7,1.64,14.1,2.48,21.14.32,2.66.34,2.66,3.15,2.66h68.08c3,0,3,0,2.76,3.06-.1,1.08.24,2.24-.49,3.23-.55.31.36-1.26-.59-.44-.67.58-1.52.4-2.3.4q-30.45,0-60.9,0c-4.4,0-8.79,0-13.19,0A4.33,4.33,0,0,1,245.86,523.09Z" transform="translate(329 -304.89)"/><path class="cls-9" d="M-279.09,455c-.85-.47-.46-1.28-.44-1.92.16-5.43.38-10.85.59-16.28q.4-10,.82-20.11c0-.63.07-1.27.07-1.91,0-1,.39-1.48,1.43-1.44s2.39,0,3.59,0c1.54.05,1.6.07,1.54,1.68-.18,4.95-.41,9.9-.61,14.84s-.44,10.06-.62,15.09c-.07,2.07.21,2.34,2.3,2.36,3,0,6.08,0,9.12,0,2,0,2,0,2,2-.16,7.51-.36,15-.54,22.52,0,.47,0,.95,0,1.43-.05,1.18.47,1.81,1.68,1.83h32.13c.77,0,1.2.29,1.18,1.12-.06,1.84-.1,3.67-.16,5.51,0,.75-.34,1.2-1.16,1.18-.48,0-1,0-1.44,0h-36.45c-2.88,0-2.64.16-2.58-2.56q.26-11.26.55-22.52c0-1.05.17-2.11-1-2.74A49.5,49.5,0,0,0-279.09,455Z" transform="translate(329 -304.89)"/><path class="cls-8" d="M254,456.36c.53,4.34,1,8.28,1.5,12.22q1.86,15.71,3.71,31.4c.31,2.61.67,5.22.93,7.84.13,1.28.71,1.88,2,1.79.56-.05,1.12,0,1.68,0h67.63c3.31,0,3-.39,2.81,2.89l-.06.72c-.17,2.29-.17,2.3-2.49,2.3h-76c-1.77,0-1.79,0-2-1.89-.32-2.62-.63-5.23-.94-7.85-1.57-13.32-3.09-26.65-4.75-40-.28-2.25,0-4,1.87-5.46A51.1,51.1,0,0,0,254,456.36Z" transform="translate(329 -304.89)"/><path class="cls-8" d="M580.08,507a30.44,30.44,0,0,1-7,4.53,68.17,68.17,0,0,1-21.54,6.23c-12.76,1.72-25.54,1.35-38.31.3a328.26,328.26,0,0,1-45.69-7c-4-.91-3.35-.21-3.16-4.07.33-6.79.76-13.56,1.17-20.34.12-1.91.16-1.91,2-2s2-.12,2.26-2,.41-3.65.61-5.47c0-.32.05-.64.09-1,.06-.48.12-1.09.71-1.06.82,0,.62.76.62,1.29s0,.8-.07,1.2l-1.29,22.48c0,.48,0,1-.05,1.44-.07,2.33-.07,2.33,2.15,2.88,6.13,1.52,12.33,2.69,18.55,3.79a302.9,302.9,0,0,0,33.29,4.11c13.17.85,26.36,1.14,39.45-1.26a73,73,0,0,0,13.37-3.71C578.05,507.08,578.82,506.5,580.08,507Z" transform="translate(329 -304.89)"/><path class="cls-8" d="M378.83,491.47c-.51-.42-.37-1-.41-1.56q-.93-11.24-1.83-22.46a29.37,29.37,0,0,1,.12-4.78q1-12.3,2.05-24.6c.1-1.28.08-2.56.09-3.84a2.59,2.59,0,0,1,.82-2.18c1.51,6.12,1.44,12.37,2,18.53,1,10.58,1.71,21.18,2.56,31.77.17,2.22.31,2.31,2.94,2.31h72.22c2,0,2,0,1.83,2-.14,1.27-.31,2.54-.4,3.81-.08,1-.53,1.44-1.53,1.36-.48,0-1,0-1.44,0q-38.27,0-76.54,0c-.83,0-1.76.39-2.49-.36.65-.48,1.39-.25,2.09-.26h76.53q-37.77,0-75.52,0C380.9,491.2,379.8,490.69,378.83,491.47Z" transform="translate(329 -304.89)"/><path class="cls-8" d="M564.42,522.71a5.3,5.3,0,0,1-2.35,2.24c-6.67,4.37-14.08,6.78-21.85,8.19a141.82,141.82,0,0,1-31.55,1.69,323.1,323.1,0,0,1-38.13-4.08c-6.7-1.11-13.38-2.37-20-3.9-2-.47-2-.49-1.88-2.53q.63-10.52,1.22-21.05a4.34,4.34,0,0,0,0-.72c-.11-1.27.5-1.61,1.71-1.62,2.07,0,2.12-.12,2.4-2.1.15-1.11.17-2.23.35-3.33.12-.65-.11-1.82.73-1.79,1,0,.51,1.16.49,1.76-.16,3.83-.4,7.66-.63,11.49-.21,3.59-.46,7.17-.64,10.76-.12,2.28-.08,2.3,2.24,2.85,9.34,2.2,18.77,3.91,28.26,5.31a268,268,0,0,0,45.9,3c10.79-.28,21.32-1.81,31.43-5.76C562.84,522.84,563.55,522.24,564.42,522.71Z" transform="translate(329 -304.89)"/><path class="cls-8" d="M318.27,531.21c-.7.84-1.64.39-2.45.39q-33.45,0-66.91,0c-3,0-5.92-.06-8.87,0-1.34,0-1.78-.44-1.92-1.74-.7-6.43-1.5-12.85-2.26-19.27q-1.59-13.32-3.15-26.64c-.07-.63-.11-1.28-.24-1.9a3.07,3.07,0,0,1,1.17-3.15c1.48-1.3,2.82-2.76,4.39-4.34a50.62,50.62,0,0,1,1.07,7.54c1.65,13.63,3.24,27.27,4.86,40.91.3,2.54.32,2.55,3,2.55H316c2.89,0,3.08-.67,2.68,3-.08.71-.21,1.42-.32,2.13a3.82,3.82,0,0,1-2.11.22q-37.5,0-75,0c-.57,0-1.23.26-1.46,0a6.77,6.77,0,0,0,1.86,0l74,0A5.3,5.3,0,0,1,318.27,531.21Z" transform="translate(329 -304.89)"/><path class="cls-8" d="M73.16,509.58c1.35,0,2.53,0,3.71,0a1.54,1.54,0,0,0,1.72-1.79c0-1.4,0-2.8,0-4.21,1,0,1.15.67,1.47,1.07C88,515,98.6,521.34,111,524.93a100.26,100.26,0,0,0,26.49,3.9c8.4.13,16.8.22,25.14-1a86.56,86.56,0,0,0,22.62-6.08c.78-.35,1.55-.89,2.57-.44-.24,1-1.14,1.27-1.81,1.71a66.39,66.39,0,0,1-24.37,9.65,135.62,135.62,0,0,1-33.9,2.06,98.88,98.88,0,0,1-27.28-4.91C90,526.19,81.1,520.37,74.24,511.6A4,4,0,0,1,73.16,509.58Z" transform="translate(329 -304.89)"/><path class="cls-8" d="M88.81,493.46c1.36,0,2.63,0,3.9,0,1.67-.06,1.93-.33,2-2,0-1.32,0-2.65,0-4,.75-.08.88.36,1.1.65,8,10.42,18.52,16.94,31,20.61a105.19,105.19,0,0,0,26.48,4c10.81.35,21.59,0,32.23-2.2a83.31,83.31,0,0,0,14.23-4.22c.78-.31,1.54-.89,2.48-.39,0,1-.83,1.1-1.38,1.46a64.38,64.38,0,0,1-23.78,9.19c-18,3.25-36,3.3-53.81-.78A60.85,60.85,0,0,1,98.1,504a52.46,52.46,0,0,1-8.81-9.12A1.76,1.76,0,0,1,88.81,493.46Z" transform="translate(329 -304.89)"/><path class="cls-19" d="M103.12,475.06c1.67,0,3.35,0,5,0,2.4,0,2.49-.14,2.6-2.6,0-.31.05-.61.08-.88.59-.31.78.14,1,.43,8.91,11.76,21,18.4,35.11,21.81a102.43,102.43,0,0,0,22.79,2.89c8.23.09,16.47.21,24.66-.95a97.66,97.66,0,0,0,18.41-4.29c.88-.31,1.75-.86,2.83-.38,0,1-1,1.14-1.56,1.5a64.9,64.9,0,0,1-21.31,7.73c-18,3.25-36,3.32-53.82-.75a60.47,60.47,0,0,1-25.71-12.32,51,51,0,0,1-9.79-10.79A1.3,1.3,0,0,1,103.12,475.06Z" transform="translate(329 -304.89)"/><path class="cls-13" d="M-285.67,524c-6.24,0-12.47,0-18.71,0-2,0-2,0-2-2q.24-11.61.57-23.22c.06-2.23-.13-2.53-2.31-2.55-3,0-6.07,0-9.11,0-1.89,0-1.91,0-1.85-1.79q.6-17.36,1.22-34.72c.05-1.27.24-2.54.28-3.81,0-1,.34-1.49,1.4-1.45s2.4,0,3.6,0c.85,0,1,.39,1,1.19q-.51,12-.95,23.93c-.11,2.71-.19,5.43-.2,8.14,0,1.47.33,1.79,1.88,1.81,3.12,0,6.24,0,9.35,0,2.17,0,2.21,0,2.17,2.06q-.26,11.61-.57,23.23c-.06,2.15.15,2.47,2.39,2.48h29.74c.64,0,1.28,0,1.91,0,1,0,1.18.47,1.24,1.34.37,5.34.39,5.34-5,5.34Z" transform="translate(329 -304.89)"/><path class="cls-19" d="M-261.75,499.18h-18.71c-2.1,0-2.13,0-2.09-2.08q.26-10.78.53-21.56l0-1.43c0-2.45-.14-2.64-2.51-2.66-2.63,0-5.27,0-7.91,0a13.83,13.83,0,0,0-1.44,0c-1.3.13-1.62-.49-1.57-1.69.24-5.19.4-10.38.6-15.56q.44-11,.9-22c.1-2.54.1-2.54,2.73-2.55.8,0,1.6,0,2.4,0,1.05-.05,1.4.41,1.35,1.44-.19,4-.33,8-.49,12-.27,6.79-.56,13.57-.81,20.35-.08,2.14.14,2.33,2.28,2.35,3,0,5.92,0,8.87,0,2.27,0,2.3,0,2.25,2.21q-.27,11.38-.57,22.76c0,.4-.07.79-.07,1.19a1.36,1.36,0,0,0,1.43,1.55c.64,0,1.28,0,1.92,0h29.73c2.1,0,2.1,0,2.08,2.16-.05,3.57-.05,3.57-3.67,3.57Z" transform="translate(329 -304.89)"/><path class="cls-8" d="M-286.79,460.73a9.64,9.64,0,0,1-.08-1.19q.69-17.6,1.39-35.2c.09-2,0-2.11,2.18-2.08,3.75,0,3.27-.42,3.14,3.12-.37,9.42-.78,18.83-1.17,28.25,0,.16,0,.32,0,.48-.08,2.61.06,2.76,2.59,2.78h9.83c.7,0,1,.35,1,1s0,1.12,0,1.68q-.27,11.13-.54,22.28c-.06,2.59.08,2.74,2.64,2.75q15.1,0,30.22,0a15.69,15.69,0,0,0,1.68,0c1.32-.15,1.65.5,1.56,1.69-.1,1.35-.12,2.71-.1,4.07,0,1-.33,1.51-1.39,1.42-.4,0-.8,0-1.2,0h-36.45c-.48,0-1,0-1.44,0-.93.05-1.28-.38-1.25-1.29.08-2.08.09-4.15.14-6.23q.24-9,.47-18c.05-2-.16-2.25-2.11-2.27-3,0-6.07,0-9.11,0-.66,0-1.45.34-2-.42,3.85-.53,7.71-.16,11.58-.23-2.71,0-5.43-.17-8.13,0C-285.47,463.55-286.83,463.14-286.79,460.73Z" transform="translate(329 -304.89)"/><path class="cls-8" d="M-310.79,484.7c0-.55-.09-1.11-.07-1.66q.69-17.48,1.4-35c.08-2.14.12-2.18,2.35-2.15,4.16.05,3.61-.59,3.46,3.5-.36,9.58-.78,19.15-1.18,28.72,0,.56-.06,1.12-.05,1.68,0,1.63.3,2,2,2,3,.05,5.91,0,8.87,0s2.63-.22,2.56,2.55q-.25,11-.54,22c0,.48,0,1,0,1.44,0,1.22.6,1.74,1.76,1.73h30.93c.56,0,1.12,0,1.68,0,.92-.05,1.21.38,1.26,1.28.26,4.63.28,4.63-4.24,4.63h-35.48c-2.08,0-2.11,0-2.06-2.11.17-7.58.37-15.16.56-22.74,0-1,.27-2.1-.69-2.89-1.94-.9-4-.23-6-.4a13.3,13.3,0,0,0-3.09,0C-309.53,487.67-310.82,487.07-310.79,484.7Z" transform="translate(329 -304.89)"/><path class="cls-12" d="M367.17,484.42c.19,1.87.4,3.68.55,5.5.24,2.86.42,5.73.64,8.59.18,2.22.39,2.46,2.6,2.46,7.35,0,14.7,0,22.05,0H442.4c3,0,3,0,2.62,2.89-.46,3.94-.46,3.95-4.5,3.95h-75c-.4,0-.8,0-1.2,0-1.29.16-1.85-.36-1.93-1.69-.16-2.63-.47-5.24-.69-7.87q-.46-5.72-.91-11.45c-.16-2.06-.11-2.11,2-2.13A21.42,21.42,0,0,0,367.17,484.42Z" transform="translate(329 -304.89)"/><path class="cls-8" d="M-313.65,530.74c-.18-5,.1-10.06.23-15.09.08-3.19.19-6.39.23-9.58,0-2-.18-2.18-2.2-2.2-3.12,0-6.23,0-9.35,0-1.85,0-1.9,0-1.84-1.83.17-5.27.38-10.54.58-15.81q.44-11,.9-22c.08-2.1.1-2.1,2.15-2.13,3.36-.05,3.34-.05,3.21,3.22q-.58,14.61-1.13,29.21,0,.48,0,1c0,2.24.12,2.4,2.46,2.42s4.64,0,7,0h1.92c2.08,0,2.11,0,2.06,2.14q-.27,11.5-.57,23c-.06,2.44.05,2.58,2.5,2.59h30.95c2.66,0,2.69,0,2.58,2.57,0,1,.2,2.07-.35,3-12.91.06-25.82,0-38.74,0A3.65,3.65,0,0,1-313.65,530.74Z" transform="translate(329 -304.89)"/><path class="cls-8" d="M848.63,491a76.2,76.2,0,0,1-2.13-9c-1.44-6.47-2.73-13-4.16-19.44a33.29,33.29,0,0,1-.82-7.83c.06-3.52,0-7,0-10.55,0-1.89,0-1.89,1.82-1.94,2.22-.06,2.24-.07,2.74,2.27,2.63,12.25,5.22,24.51,7.87,36.76.73,3.33,0,3.49,4.32,3.48q21.11,0,42.21,0c2.4,0,2.42,0,3.07,2.27a13.27,13.27,0,0,1,.86,3.47c-.07.14-.13.28-.2.43-.77.82-1.78.58-2.71.58q-25.17,0-50.35,0A3.94,3.94,0,0,1,848.63,491Z" transform="translate(329 -304.89)"/><path class="cls-8" d="M543.12,428.64c-3.82-.39-7.47-.73-11.11-1.15-7.77-.9-15.54-1.87-23.32-2.74A10.88,10.88,0,0,1,503.8,423c-8.85-5.77-13.56-14.15-15.56-24.3a36.79,36.79,0,0,1-.31-11.66q1.92-16,3.58-32.12c.37-3.58,2.23-6.43,3.91-9.41a.57.57,0,0,1,.79-.3c.29.15.24.46.14.81a87.8,87.8,0,0,0-3,14.7,102.37,102.37,0,0,0,.79,29.81c2.68,14.21,11.08,23.71,24.19,29.36,8,3.43,16.32,5.49,24.78,7.22.82.17,2.35-.13,2.18,1.12C545.11,429.24,543.71,428.28,543.12,428.64Z" transform="translate(329 -304.89)"/><path class="cls-16" d="M411.26,499.2H373.11c-.56,0-1.12,0-1.68,0-.9.06-1.27-.34-1.34-1.24-.16-2.31-.4-4.61-.58-6.92-.39-4.7-.78-9.4-1.12-14.1-.14-1.82-.08-1.9,1.76-1.85s3.49-.33,5.19.24c.2,1.66.44,3.31.59,5,.34,3.82.67,7.64.93,11.46.08,1.2.57,1.76,1.77,1.71.64,0,1.28,0,1.92,0h69.57c2.8,0,2.8,0,2.43,2.73-.42,3-.42,3-3.38,3Z" transform="translate(329 -304.89)"/><path class="cls-14" d="M-89.94,491.47c-.59.63-1.36.33-2,.33q-25.44,0-50.86,0c-.4,0-.8,0-1.2,0-.8,0-1.19-.33-1.16-1.13,0-.48,0-1,0-1.44q0-19.67,0-39.31c0-.4,0-.8,0-1.2-.08-1,.26-1.54,1.34-1.43.4,0,.8,0,1.2,0a1.51,1.51,0,0,0,1.67-1.62c0-.64,0-1.28.05-1.92q.3-14,.61-28c1.5.57.85,1.88.86,2.84.05,15.32,0,30.64,0,46,0,6.15,0,12.29,0,18.43a2.26,2.26,0,0,0,.47,1.24c.8.78,1.81.44,2.73.44q21.68,0,43.35,0h1.44c1.74,0,1.83.05,1.77,1.68s.4,3.48-.31,5.15c-.65-1.14,0-2.42-.3-3.39.08.4,0,1,0,1.62.11,1.18-.48,1.56-1.57,1.47-.56-.05-1.12,0-1.68,0h-47.68a3.28,3.28,0,0,1-.62,0h33.73c5.27,0,10.54,0,15.81,0C-91.49,491.2-90.66,490.92-89.94,491.47Z" transform="translate(329 -304.89)"/><path class="cls-13" d="M346.67,523.69c-.85-1.87-.5-3.9-.71-5.84-.53-4.88-.82-9.79-1.18-14.68-.06-.71,0-1.43,0-2.14,2-.7,4.08-.13,6.14-.4,1.67-.21.27,1.71,1,2.36,0,4.22.58,8.41.93,12.62.1,1.21.67,1.71,1.84,1.67.63,0,1.27,0,1.91,0h70.14c2.45,0,2.49,0,2.1,2.53-.19,1.23.16,2.56-.59,3.7-23.46.07-46.92,0-70.39,0A107.66,107.66,0,0,0,346.67,523.69Z" transform="translate(329 -304.89)"/><path class="cls-16" d="M-125.78,499.19h-24.93c-.55,0-1.11,0-1.67,0-.94,0-1.3-.42-1.25-1.31,0-.48,0-1,0-1.44V459.56c0-.48,0-1,0-1.44,0-.92.44-1.18,1.32-1.25,2.65-.21,2.65-.25,2.72-3,0-1.76.09-3.51.09-5.27,0-.88.3-1.31,1.25-1.31s1.3.39,1.27,1.28c0,.64,0,1.28,0,1.92V490c0,.64,0,1.28,0,1.92a1.39,1.39,0,0,0,1.49,1.5c.72,0,1.44,0,2.16,0h43.39c1.79.05,1.79.05,1.84,1.9.09,3.83.09,3.83-3.72,3.83Z" transform="translate(329 -304.89)"/><path class="cls-8" d="M437.19,509.93c-.13,1.47-.27,3-.4,4.47a1.09,1.09,0,0,1-1.27,1.11c-.56,0-1.12,0-1.68,0H357.31a9.61,9.61,0,0,0-1.2,0c-1.28.15-1.62-.49-1.7-1.66-.44-6.06-1-12.11-1.44-18.16-.16-2.19-.12-2.2,2.16-2.21,1,0,2.09.08,3.11,0s1.4.25,1.47,1.27c.28,4,.64,8,1,11.94.23,2.92.22,2.93,3.1,2.93h70.77A4.44,4.44,0,0,1,437.19,509.93Z" transform="translate(329 -304.89)"/><path class="cls-9" d="M434.68,367.44q-.57,12.57-1.12,25.12-.48,10.65-1,21.29c-.09,1.74-.28,1.87-1.7,1.86a1.23,1.23,0,0,1-1.39-1.26c-.18-1.51-.37-3-.54-4.52-.52-4.44-1.08-8.87-1.54-13.32-.5-4.78-.08-9.57.13-14.36.4-9.49.86-19,1.3-28.47q.74-16,1.48-32c.09-1.9.12-1.9,2.13-1.93q1.2,0,2.4,0c2.06,0,2.07,0,2,2.2q-1,21.17-1.92,42.34c-.05,1-.16,2.07-.25,3.1Z" transform="translate(329 -304.89)"/><path class="cls-18" d="M380.08,531.63H342.2a11.53,11.53,0,0,0-1.44,0c-1.26.14-1.83-.3-1.92-1.68-.34-5-.79-10-1.21-15-.11-1.35-.22-2.71-.35-4.06-.07-.73.06-1.26,1-1.27,1.52,0,3,0,4.55-.07.88,0,.77.69.81,1.18.26,2.78.47,5.57.7,8.35.14,1.59.25,3.19.42,4.77s.33,1.7,1.93,1.78c.55,0,1.11,0,1.67,0H418.8c2.7,0,3.1-.72,2.55,3-.43,3-.41,3-3.4,3Z" transform="translate(329 -304.89)"/><path class="cls-9" d="M-187.11,482.88h-18.47c-2.41,0-2.44,0-2.38-2.28.22-7.27.43-14.53.69-21.79.13-3.57.07-3.66-3.44-3.68-4.09,0-3.55.47-3.46-3.57,0-1.35-.43-3.05.5-3.93s2.59-.29,3.94-.31c2.32-.05,4.63,0,6.95,0,2.67,0,2.42,0,2.36,2.54q-.27,10.43-.55,20.83c0,.64,0,1.28-.05,1.92,0,2.26.15,2.46,2.44,2.47h29.5c.56,0,1.12,0,1.67,0,1.32-.14,1.65.52,1.57,1.7-.09,1.43-.06,2.88-.12,4.31-.08,1.77-.09,1.8-2,1.8C-174.32,482.89-180.72,482.88-187.11,482.88Z" transform="translate(329 -304.89)"/><path class="cls-9" d="M338.23,398.74c.45-4.45.93-9.29,1.43-14.13q1.14-11,2.31-21.91,1.51-14.28,3-28.57c.38-3.49.82-7,1.13-10.47.11-1.15.59-1.48,1.67-1.45,4.84.15,4.45-.85,3.92,4.3-.84,8.17-1.73,16.34-2.6,24.52l-4.71,44.28c-.67,6.27-1.32,12.54-2,18.8-.16,1.49-.37,1.61-1.74,1.6-.94,0-1.24-.42-1.3-1.29-.23-3.18-.53-6.36-.77-9.55C338.47,403,338.37,401.05,338.23,398.74Z" transform="translate(329 -304.89)"/><path class="cls-15" d="M-155.31,474.54v10c0,4.55,0,9.11,0,13.66,0,2.57.14,2.72,2.72,2.72h43.67c3.57,0,3.15-.41,3.14,3.23,0,4.17.55,3.59-3.5,3.59q-24.36,0-48.7,0c-.64,0-1.28,0-1.92,0-.9,0-1.33-.37-1.3-1.28,0-.48,0-1,0-1.44V477.75c0-.48,0-1,0-1.43,0-.94.46-1.24,1.33-1.25C-158.44,475-157,475.28-155.31,474.54Z" transform="translate(329 -304.89)"/><path class="cls-12" d="M827.84,484.93a5,5,0,0,1,2.57-.26c2.34-.07,2.46-.15,2.48-2.42s0-4.39.18-6.61c.87,1.13.89,2.51,1.17,3.78,1.39,6.31,2.7,12.63,4.06,18.94.56,2.57.61,2.6,3.37,2.6q21.09,0,42.18,0c.64,0,1.28,0,1.92,0a1.21,1.21,0,0,1,1.41,1c.51,1.83,1.07,3.66,1.58,5.41-.67.65-1.34.43-1.94.43q-26,0-52,0c-2.23,0-2.26,0-2.7-2q-2.05-9.47-4.05-18.95A4,4,0,0,1,827.84,484.93Z" transform="translate(329 -304.89)"/><path class="cls-21" d="M-302.61,479.91c-.7-.31-.48-.94-.46-1.45.24-6.07.52-12.13.76-18.19.25-6.3.46-12.6.69-18.91,0-.63.05-1.27.07-1.91a1.07,1.07,0,0,1,1.19-1.18c.16,0,.32,0,.48,0,4.82.05,4-.55,3.87,3.84-.33,9.25-.78,18.5-1.18,27.75,0,.4,0,.8,0,1.2,0,1.79.28,2.11,2.06,2.13,3,.05,6.07,0,9.11,0,2.24,0,2.28,0,2.23,2.21-.16,7.43-.35,14.85-.53,22.27,0,.4,0,.8,0,1.2.05,1.75.32,2,2.14,2.08.48,0,1,0,1.44,0h29.5c.55,0,1.11,0,1.67,0,.78,0,1.2.32,1.17,1.14-.06,1.51-.09,3-.17,4.54a1.05,1.05,0,0,1-1.21,1.15c-.48,0-1,0-1.44,0h-36.68c-2.28,0-2.31,0-2.26-2.43.17-7.34.36-14.69.53-22a10.14,10.14,0,0,0-.12-2.86c-.53-1.9.86-1.56,1.92-1.7,1.6-.2,1.88.85,2,2,.13.95-.75,2,.44,2.95a3.53,3.53,0,0,0,.31-3,6.35,6.35,0,0,1,0-3.95c.54-1.58-.67-2.08-2-2.3-1.62-.41-3.29,0-5-.43,1.33,1.65.68,3.26.2,4.88-.3,1-1.13.65-1.78.69C-296.64,479.84-299.64,479.33-302.61,479.91Z" transform="translate(329 -304.89)"/><path class="cls-9" d="M579.65,353.86c13.26.52,26.5,1.45,39.72,2.58.55.05,1.11.14,1.66.18a1,1,0,0,1,1.1,1.24c-.09,2.08-.2,4.15-.25,6.22,0,1-.49,1.24-1.37,1.15-1.75-.18-3.5-.31-5.25-.48q-17.43-1.69-34.9-2.56c-4.07-.21-8.15-.29-12.23-.39a11,11,0,0,1-5.52-1.34,3.22,3.22,0,0,1-1.85-3.56c.19-1.58,1.36-2.1,2.63-2.39a26.1,26.1,0,0,1,5.71-.64C572.62,353.85,576.13,353.86,579.65,353.86Z" transform="translate(329 -304.89)"/><path class="cls-13" d="M-171.06,515.47a1.83,1.83,0,0,0,2.09,1.8h44.6c2.61,0,2.65,0,2.6,2.6,0,1.24.36,2.54-.35,3.72-.55-1-.16-2.14-.24-3,0-.51-.54-.13-.24-.24.11,0,.16,0,.17.16.15,2.8.15,2.8-2.59,2.8h-47a8.52,8.52,0,0,0-2.31.12c-.32.08.24.27.06,0-.06-.09,0-.14.19-.14,16.86,0,33.71,0,50.57,0,.47,0,1-.1,1.37.27-.67.66-1.52.36-2.28.36q-25.2,0-50.39,0h-.72c-1.79-.06-1.83-.06-1.84-1.93q0-13.31,0-26.61c0-1.89.09-1.87,2.09-2,1.26-.08,2.81.62,3.6-1.09a.62.62,0,0,1,.74.7C-171,500.51-170.65,508-171.06,515.47Z" transform="translate(329 -304.89)"/><path class="cls-8" d="M-163.64,475.2c.85.72.64,1.6.64,2.42q0,14.37,0,28.75c0,3.2,0,3.21,3.18,3.21h44.36c1.79,0,1.79,0,1.84,1.89.09,4,.09,4-4,4h-48.92c-2.91,0-2.62.14-2.62-2.54V487.07c0-2.4-.23-2.43,2.27-2.43s2.52-.12,2.61-2.58A30.06,30.06,0,0,1-163.64,475.2Z" transform="translate(329 -304.89)"/><path class="cls-16" d="M896.34,498.94a4.93,4.93,0,0,1-2.44.24H842.8c-.48,0-1,0-1.44,0a1.15,1.15,0,0,1-1.35-1c-1.61-7.56-3.24-15.13-4.89-22.8a10.78,10.78,0,0,1,3.87-.3c2.42-.06,2.41,0,2.49-2.36a3.38,3.38,0,0,1,.35-1.95c.95.6.88,1.55,1,2.32,1.28,5.85,2.52,11.7,3.78,17.56.61,2.82.61,2.82,3.62,2.82H892c.64,0,1.28,0,1.92,0a1.14,1.14,0,0,1,1.24.9A24.12,24.12,0,0,1,896.34,498.94Z" transform="translate(329 -304.89)"/><path class="cls-13" d="M816.48,523.09c-1.15-3.57-1.69-7.27-2.51-10.91-.7-3.11-1.36-6.24-2-9.36-.36-1.71-.29-1.89,1.38-1.83,4.41.16,3.66-.49,3.72-3.85,0-.64,0-1.28,0-1.92s-.26-1.48.63-1.54c.66-.05.67.75.78,1.29.6,2.73,1.22,5.45,1.8,8.17.85,4,1.67,8,2.51,11.94.42,2,.64,2.18,2.74,2.19h42.66c3.33,0,2.61,0,3.51,2.7a6.66,6.66,0,0,1,.56,2.56c-.4,1.07-1.33,1-2.21,1q-16.87,0-33.77,0c-5.5,0-11,0-16.51,0A7,7,0,0,1,816.48,523.09Z" transform="translate(329 -304.89)"/><path class="cls-18" d="M-129.46,531.22c-.36.65-1,.38-1.5.38q-25.9,0-51.8,0c-2,0-2.05,0-2.05-1.94q0-13.41,0-26.83c0-1.83.05-1.83,1.87-1.89h.48c2.09-.07,2.22-.2,2.3-2.4,0-1.19.06-2.39.11-3.59,0-.44-.1-1,.65-1.25a4.15,4.15,0,0,1,.27,2.43q0,13.07,0,26.12c0,.48,0,1,0,1.44.09,1.53.33,1.77,1.86,1.88.63,0,1.28,0,1.92,0h43.4c2.89,0,2.66-.27,2.65,2.76,0,.79-.07,1.59-.1,2.38a3.1,3.1,0,0,1-1.87.23h-50.57c-.51,0-1.06.12-1.28,0a6.35,6.35,0,0,0,1.92,0q24.57,0,49.13,0A5.19,5.19,0,0,1-129.46,531.22Z" transform="translate(329 -304.89)"/><path class="cls-8" d="M880.76,515.21a4.36,4.36,0,0,1-2.4.27q-25.65,0-51.29,0c-2.43,0-2.43,0-2.93-2.31q-1.89-8.77-3.77-17.55c-.45-2.13-.43-2.13,1.64-2.16h1.2c2.15,0,2,0,2-2.3,0-1.49-.38-3.07.47-4.88,1.73,4.5,2.34,8.87,3.32,13.14.64,2.8,1.27,5.6,1.8,8.42a1.86,1.86,0,0,0,2.13,1.75c.56,0,1.12,0,1.68,0h41.94c.56,0,1.12,0,1.68,0a1.19,1.19,0,0,1,1.34,1.05A30.49,30.49,0,0,1,880.76,515.21Z" transform="translate(329 -304.89)"/><path class="cls-10" d="M734.48,363.78H709.31c-.56,0-1.12,0-1.68,0-.86,0-1.37-.29-1.36-1.23,0-1.84,0-3.67,0-5.51a1,1,0,0,1,1.15-1.18h1.68q25.3,0,50.59,0c.32,0,.64,0,1,0,1.74.06,1.79.08,1.83,1.72s0,3.35,0,5c0,.78-.35,1.18-1.15,1.18H734.48Z" transform="translate(329 -304.89)"/><path class="cls-9" d="M-277.65,391.2a78.73,78.73,0,0,1,.16-8.13q.58-15.21,1.24-30.4a7.7,7.7,0,0,0,0-1c-.09-1.12.4-1.64,1.54-1.55,1.58.13,3.5-.65,4.65.35s.19,2.86.14,4.34c-.28,8.45-.65,16.91-1,25.37,0,.64-.05,1.28,0,1.91,0,1.69.24,1.93,2,2,2.71,0,5.43,0,8.15,0,.56,0,1.12,0,1.68,0,1.2-.1,1.72.32,1.67,1.62-.14,3.83-.17,7.67-.26,11.5,0,1.2-.13,2.39-.15,3.59,0,.89-.38,1.31-1.3,1.29-1.36,0-2.72,0-4.07,0-1.09,0-1.37-.55-1.32-1.51.09-1.83.17-3.67.22-5.5.08-3,0-3-3.07-3-2.87,0-5.75,0-8.63,0-.52,0-1.13.23-1.53-.36,1.95-.52,3.94-.15,5.91-.22s3.78,0,5.67,0C-269.87,391.28-273.77,391.72-277.65,391.2Z" transform="translate(329 -304.89)"/><path class="cls-22" d="M766.52,391.68v33.08c0,.56,0,1.12,0,1.68,0,.9-.35,1.32-1.27,1.3-1.36,0-2.72,0-4.08,0-.87,0-1.37-.29-1.32-1.24,0-.55,0-1.11,0-1.67V368.49c0-.56,0-1.12,0-1.68-.07-1.05.44-1.45,1.44-1.37a5.77,5.77,0,0,0,.72,0c2-.11,2.21-.28,2.24-2.23s0-4,0-6c0-.86.27-1.4,1.23-1.35.53,0,.95.23,1,.81s0,1.28,0,1.92Z" transform="translate(329 -304.89)"/><path class="cls-8" d="M-194.38,491.82h-18.7c-2.29,0-2.28,0-2.27-2.16,0-10.38,1-20.73,1-31.11,0-1.2.34-1.71,1.63-1.68,4.51.12,3.71-.5,3.63,3.63-.13,7-.36,14-.55,21.07,0,.55,0,1.11,0,1.67a1.3,1.3,0,0,0,1.35,1.38c.64,0,1.28,0,1.92,0h30.2c.56,0,1.12,0,1.68,0,.76,0,1.23.23,1.2,1.09-.06,1.68-.1,3.35-.14,5,0,.68-.32,1-1,1h-19.9Z" transform="translate(329 -304.89)"/><path class="cls-17" d="M780,507.8H753.38c-.77,0-1.2-.3-1.19-1.12q0-6,0-12c0-.95.5-1.18,1.35-1.25,3.36-.28,3.35-.3,3.37-3.74,0-1.44,0-2.87.07-4.31,0-.34.23-.62.61-.51a.7.7,0,0,1,.39.49,13.25,13.25,0,0,1,.08,1.67v11c0,2.7.17,2.89,2.83,2.89q12.48,0,24.94,0h19.67c2.21,0,2.21,0,2.25,2.28,0,.8,0,1.59,0,2.39,0,2.13,0,2.15-2.08,2.16-3.12,0-6.24,0-9.36,0Z" transform="translate(329 -304.89)"/><path class="cls-14" d="M809.3,531.31c-.64-.41-.57-1.12-.7-1.71q-2-9.14-3.92-18.27a12.9,12.9,0,0,1-.17-1.44c.93-.54,1.9-.24,2.83-.3,1.84-.1,2-.23,2-2.13s0-4,0-6.3a4,4,0,0,1,1,2.2L814.57,523c.54,2.55.54,2.57,3.1,2.57h42.94c.56,0,1.12,0,1.68,0A1.42,1.42,0,0,1,864,526.8a24.4,24.4,0,0,1,1,3.94c-1,.74-2.15.46-3.25.46q-24.68,0-49.34,0A21.51,21.51,0,0,0,809.3,531.31Z" transform="translate(329 -304.89)"/><path class="cls-8" d="M768.52,491.45c-.38-.28-.33-.69-.33-1.08,0-4.55,0-9.1,0-13.65,0-1.21.33-1.75,1.62-1.67,1,.06,2.09.28,3-.47,1.4.11.71,1.19.76,1.82.22,2.44-.29,4.91.31,7.34.79,1.08,1.95.91,3.06.91h32.86c4.08,0,8.16,0,12.24,0,1.68,0,1.7,0,1.73,1.73,0,1.35,0,2.72,0,4.07,0,1.06-.42,1.38-1.43,1.37-3.51,0-7,0-10.55,0q-20.38,0-40.78,0c-.83,0-1.76.38-2.49-.36a4.71,4.71,0,0,1,2.57-.24q24.43,0,48.86,0c3.37,0,3.06.31,3.08-3.09a2.94,2.94,0,0,1,.17-1.55c-.56,0-.21.19-.2.33.27,4.3.27,4.3-4,4.3q-24,0-47.9,0C770.23,491.18,769.33,490.91,768.52,491.45Z" transform="translate(329 -304.89)"/><path class="cls-13" d="M736.37,523.56a1.27,1.27,0,0,1-.36-1.08c0-3.76,0-7.51,0-11.27,0-1.3.51-1.73,1.72-1.61a13.64,13.64,0,0,0,1.43,0c1.12,0,1.59-.59,1.59-1.64,0-1.52,0-3,0-4.56,0-.48,0-1,0-1.44s.25-.91.85-.92a.8.8,0,0,1,.9.87c0,.63,0,1.27,0,1.91,0,3.6,0,7.2,0,10.79,0,2.45.18,2.62,2.54,2.66,1.36,0,2.72,0,4.08,0h40.31c2.08,0,2.09,0,2.11,2.13,0,1,0,2.08,0,3.12s-.32,1.51-1.37,1.44c-.48,0-1,0-1.44,0q-25,0-49.91,0c-.84,0-1.77.35-2.51-.38a4.83,4.83,0,0,1,2.58-.24q24.31,0,48.61,0c3.82,0,3.29.29,3.31-3.34a7.83,7.83,0,0,1,.1-.83c-.25,0-.27,0-.25.14.38,4,.38,4-3.65,4q-24.06,0-48.13,0A4.45,4.45,0,0,0,736.37,523.56Z" transform="translate(329 -304.89)"/><path class="cls-22" d="M787.7,499.19H762.77c-.56,0-1.12,0-1.68,0-.93,0-1.26-.4-1.25-1.3q0-6,0-12c0-.92.4-1.21,1.29-1.27,3.12-.23,3.12-.26,3.12-3.45,0-1.35,0-2.71,0-4.07,0-.85-.44-2.09,1.19-2,1.45.05,1,1.17,1,2,0,4.39,0,8.78,0,13.17,0,3.25,0,3.25,3.35,3.25h42.91c2.52,0,2.64-.39,2.61,2.59,0,3.58.32,3.11-3,3.12Q800,499.21,787.7,499.19Z" transform="translate(329 -304.89)"/><path class="cls-10" d="M-46.22,364.74H-69c-.56,0-1.12,0-1.68,0-.81,0-1.15-.38-1.15-1.17,0-1.91,0-3.83,0-5.75a.9.9,0,0,1,1-1l1.44,0h46.53c.4,0,.8,0,1.2,0,.91-.05,1.3.38,1.29,1.29,0,1.83,0,3.67,0,5.51a1,1,0,0,1-1.17,1.14H-46.22Z" transform="translate(329 -304.89)"/><path class="cls-8" d="M771.93,515.49h-26.6c-.79,0-1.14-.36-1.14-1.16q0-6.11,0-12.21c0-.79.34-1.18,1.14-1.15.4,0,.8,0,1.2,0,1.58-.09,1.81-.28,1.87-1.81.06-1.35,0-2.71,0-4.07,0-.71-.1-1.51,1-1.56s1,.8,1,1.5c0,3.91,0,7.82,0,11.73,0,2.68.15,2.83,2.87,2.83H797.1c3,0,2.67-.28,2.65,2.72,0,3.64.52,3.17-3.15,3.18C788.38,515.51,780.15,515.49,771.93,515.49Z" transform="translate(329 -304.89)"/><path class="cls-18" d="M638.5,404.73c-.91-.41-.77-1.32-.93-2.06a41.51,41.51,0,0,0-3.88-11.26,6.67,6.67,0,0,1-.77-3.21c.07-19.15-.16-38.3.24-57.44,0-1.94.06-1.95,2-2,1.11,0,2.23,0,3.35.08a3.8,3.8,0,0,1,.22,2.11q0,35.82,0,71.64A3.9,3.9,0,0,1,638.5,404.73Z" transform="translate(329 -304.89)"/><path class="cls-18" d="M772.71,428.21a5.2,5.2,0,0,0-3-.45c-1.17.08-1.6-.44-1.5-1.56,0-.47,0-.95,0-1.43v-66.6c0-2.24,0-2.25,2.18-2.31a3.41,3.41,0,0,0,2.48-.64c1.38.32.7,1.43.71,2.14q.06,18.76,0,37.53c0,10.35,0,20.71-.05,31.07C773.53,426.68,774.38,428,772.71,428.21Z" transform="translate(329 -304.89)"/><path class="cls-16" d="M106.08,355.68c.57.92.08,1.61-.27,2.31-5.18,10.64-7.56,22-8.73,33.68a190.51,190.51,0,0,0-.4,32.31c0,.4,0,.81.07,1.2.16,1.08-.14,1.7-1.38,1.6-.8-.07-1.6,0-2.4,0-3.27,0-3.31,0-3.37-3.17-.27-12.65.22-25.24,2.79-37.68,2-9.94,5.42-19.37,11.31-27.76.55-.78,1.15-1.53,1.75-2.28C105.53,355.78,105.73,355.78,106.08,355.68Z" transform="translate(329 -304.89)"/><path class="cls-18" d="M783.91,531.22c-.45.69-1.16.38-1.75.38q-25.67,0-51.34,0c-2.14,0-2.16,0-2.17-2,0-3.6,0-7.19,0-10.79,0-1.13.35-1.65,1.51-1.51.32,0,.64,0,1,0,1.25.08,1.74-.59,1.74-1.74,0-1.44,0-2.88,0-4.31,0-.58-.26-1.49.67-1.52,1.14,0,.8,1,.81,1.62,0,3.67,0,7.35,0,11,0,.56,0,1.12,0,1.68a1.34,1.34,0,0,0,1.43,1.54c.72,0,1.44,0,2.16,0q21.7,0,43.42,0c.83,0,1.75-.39,2.49.35.07,6.22.42,5-4.83,5-16.22,0-32.44.14-48.66-.05a2.91,2.91,0,0,0-.06.29,2.9,2.9,0,0,1,1.61-.19h50.6C783,531,783.5,530.88,783.91,531.22Z" transform="translate(329 -304.89)"/><path class="cls-15" d="M-210.51,507.8H-229.2c-2.32,0-2.37,0-2.27-2.4.26-6.45.58-12.89.84-19.34,0-1,.42-1.42,1.43-1.41,4.84.05,3.92-.4,3.91,3.64,0,3.36-.13,6.71-.19,10.06,0,2.42.14,2.61,2.54,2.61q15.21,0,30.43,0c.56,0,1.12,0,1.68,0,1.19-.1,1.52.5,1.45,1.59s0,2.23-.08,3.35c-.08,1.87-.09,1.89-2.12,1.9h-18.93Z" transform="translate(329 -304.89)"/><path class="cls-16" d="M-280.65,408.57c-3.42-.47-6.86-.14-10.28-.2-2.9-.06-2.73.22-2.62-2.76q.74-18.54,1.48-37.08c.09-2,.1-2,2.22-2.06,4.19-.06,4.21-.06,4.05,4.18q-.52,14.24-1.1,28.48c0,.55-.07,1.11-.05,1.67.06,1.49.32,1.79,1.88,1.82,2.87,0,5.75,0,8.63,0,.56,0,1.12,0,1.67,0,.89,0,1.33.29,1.28,1.25-.11,2.15-.2,4.3-.22,6.46,0,1.07-.51,1.36-1.48,1.35-1.19,0-2.39,0-3.58.12-.29,0-.55.3-.83.46-.95.07-.58-.67-.68-1.11C-280.47,410.31-279.88,409.34-280.65,408.57Z" transform="translate(329 -304.89)"/><path class="cls-13" d="M-304.11,433.42a4.51,4.51,0,0,0-2.55-.45c-3,0-6.07,0-9.11,0-1.21,0-1.79-.34-1.65-1.63.53-4.77.31-9.57.59-14.34.07-1.12.2-2.23.24-3.34q.33-9.69.66-19.37c.11-3.12.13-3.12,3.24-3.11s3-.29,2.89,3c-.34,9.88-.73,19.76-1.09,29.65-.09,2.35,0,2.44,2.31,2.46,3,0,6.07,0,9.1,0,2,0,2.16.19,2,2a57.68,57.68,0,0,0-.2,6.7c0,1.25-.48,1.65-1.69,1.66s-2.58-.43-3.68.55c-1.1,0-.57-.86-.69-1.36C-304,435.06-303.47,434.16-304.11,433.42Z" transform="translate(329 -304.89)"/><path class="cls-16" d="M-202.95,499.19h-18.7c-2.17,0-2.21,0-2.14-2,.23-6.86.52-13.73.74-20.59,0-1.13.4-1.6,1.54-1.51.88.07,1.76,0,2.64,0,2.12,0,2.16,0,2.11,2.07-.09,4.31-.26,8.62-.37,12.93-.09,3.39-.07,3.39,3.4,3.39h28.78c.56,0,1.12,0,1.68,0,1.1-.07,1.53.35,1.56,1.52.11,4.21.15,4.21-4,4.21Z" transform="translate(329 -304.89)"/><path class="cls-23" d="M-287.78,420.87c-.07-3.88-.07-3.88-4-3.87-2.56,0-5.11,0-7.67,0-1.84,0-1.89-.05-1.83-1.89q.33-10.17.72-20.33c.23-5.82.51-11.64.76-17.46.1-2.2.09-2.2,2.33-2.24,3.58-.05,3.48-.06,3.25,3.55-.32,4.93-.48,9.88-.68,14.82-.2,4.7-.39,9.41-.53,14.11-.06,2.26.12,2.42,2.44,2.43,3.12,0,6.23,0,9.35,0,1.22,0,1.72.38,1.66,1.65-.11,2.4-.07,4.79-.14,7.19-.05,1.61-.08,1.62-1.85,1.67-1.18,0-2.44-.24-3.25,1C-287.67,421.56-287.91,421.41-287.78,420.87Z" transform="translate(329 -304.89)"/><path class="cls-13" d="M-226.53,524h-18.68c-2.28,0-2.25,0-2.27-2.2-.05-6.14.42-12.26.69-18.39.11-2.37.17-2.4,2.5-2.38,4.12,0,3.55-.48,3.5,3.56-.05,3.43-.27,6.85-.36,10.28,0,2.23.18,2.44,2.46,2.45h29.94c.64,0,1.28,0,1.92,0,.91,0,1.3.39,1.28,1.29,0,1.36-.08,2.71-.07,4.07,0,.88-.34,1.35-1.27,1.31-.56,0-1.12,0-1.68,0Z" transform="translate(329 -304.89)"/><path class="cls-8" d="M-296,427.64c.09-3,.09-3-2.74-3-3,0-6.07,0-9.1,0-1.19,0-1.52-.44-1.46-1.57.2-4,.33-8,.49-12l1-25.12c0-.4.06-.8.05-1.2,0-1.07.39-1.6,1.56-1.54,1.42.07,2.85,0,4.4,0-.2,5.29-.4,10.63-.62,16-.22,5.66-.49,11.32-.69,17-.08,2.17.12,2.35,2.25,2.36,3.19,0,6.39.05,9.59,0,1.26,0,1.69.42,1.61,1.67-.12,2-.08,4-.14,6-.06,1.65-.09,1.65-1.83,1.7a17.48,17.48,0,0,0-3.82.23C-295.83,428.27-296,428.11-296,427.64Z" transform="translate(329 -304.89)"/><path class="cls-10" d="M727.06,414.82c6.23,0,12.45,0,18.68,0,2,0,2,0,2,2,0,1.59,0,3.19,0,4.79,0,.77-.34,1.19-1.15,1.17H709c-.4,0-.8,0-1.2,0-1.1.09-1.61-.35-1.57-1.51,0-1.75,0-3.51,0-5.26a1,1,0,0,1,1.15-1.18c.56,0,1.12,0,1.68,0Z" transform="translate(329 -304.89)"/><path class="cls-8" d="M-218.52,515.49H-237.2c-2.17,0-2.19,0-2.13-2.25q.24-9,.52-17.94c.06-1.79.09-1.84,1.93-1.82,4.74,0,4-.63,3.92,3.82,0,3.27-.16,6.54-.22,9.81,0,2.26.13,2.46,2.42,2.47h29.93c.56,0,1.12,0,1.68,0,1.75,0,1.77.05,1.77,1.69,0,1-.09,1.91-.06,2.87s-.45,1.37-1.44,1.36c-2.87,0-5.75,0-8.62,0Z" transform="translate(329 -304.89)"/><path class="cls-14" d="M110,354.64a4.45,4.45,0,0,1-.25,3.06c-3.61,10.58-5.19,21.53-5.77,32.65a198.36,198.36,0,0,0,.46,28.22c.2,2.23.5,4.44.82,6.65.17,1.14-.14,1.64-1.35,1.57s-2.24,0-3.35,0c-1.83,0-1.83,0-2-1.79-.47-4.46-.51-8.93-.54-13.4-.09-12.16.67-24.24,3.49-36.12a75.52,75.52,0,0,1,7-18.79A4.12,4.12,0,0,1,110,354.64Z" transform="translate(329 -304.89)"/><path class="cls-8" d="M-284.45,380.52l.69-18.19c0-.8.12-1.59.17-2.39a.81.81,0,0,1,.91-.86h.48c4.64.09,4-.7,3.8,3.82-.25,5.67-.46,11.33-.69,17-.15,3.82-.33,7.65-.44,11.48-.07,2.14.12,2.3,2.29,2.32,3,0,6.07,0,9.11,0,2,0,2,0,2,1.94,0,1.75-.09,3.51-.11,5.27,0,.79-.37,1.14-1.16,1.17-1.26,0-2.54-.19-3.72.56-.36.23-.75-.07-.8-.57-.15-1.24-1.09-1.2-2-1.2h-9.35c-2.06,0-2.08,0-2-2.15q.38-9.09.79-18.18Z" transform="translate(329 -304.89)"/><path class="cls-18" d="M-213.34,531.22c-.45.68-1.16.38-1.75.38q-18.94,0-37.9,0c-2,0-2,0-2-1.93q.24-9,.53-18c.07-2.11.1-2.14,2.15-2.13,4,0,3.4-.5,3.34,3.44-.05,3.28-.23,6.55-.32,9.82-.07,2.64,0,2.73,2.62,2.74H-216c3.4,0,3.1-.31,3,3.1,0,.84.26,1.76-.36,2.53-.11-.43-.32-.64-.52-.5a3,3,0,0,1-1.86.24h-36c11.92,0,23.85,0,35.77,0A4.83,4.83,0,0,1-213.34,531.22Z" transform="translate(329 -304.89)"/><path class="cls-8" d="M-311.76,441.11a3.06,3.06,0,0,0-2.28-.44h-8.63c-2.14,0-2.17,0-2.09-2q.36-10.29.78-20.58c.22-5.74.47-11.48.72-17.23.08-1.91.1-2,2.05-1.93,3.87,0,3.4-.53,3.27,3.23-.33,9.73-.74,19.46-1.12,29.19,0,.48-.05,1,0,1.44,0,1.68.26,2,1.92,2,3,0,5.91,0,8.87,0,2.8,0,2.75-.33,2.6,2.72-.08,1.76-.16,3.51-.15,5.27,0,1.11-.35,1.56-1.52,1.56s-2.41-.42-3.45.49c-1,.07-.55-.71-.64-1.14C-311.63,442.82-311.18,441.91-311.76,441.11Z" transform="translate(329 -304.89)"/><path class="cls-18" d="M-49.87,373.55c-6.7,0-13.4,0-20.1,0-1.82,0-1.83,0-1.86-1.84,0-1.35,0-2.71,0-4.07,0-.93.4-1.3,1.3-1.25.47,0,1,0,1.43,0h39c2.35,0,2.36,0,2.37,2.36,0,1,0,2.07,0,3.11,0,1.65-.05,1.68-1.79,1.69-4.86,0-9.73,0-14.6,0Z" transform="translate(329 -304.89)"/><path class="cls-10" d="M-53.29,429.84h15.82c2.29,0,2.3,0,2.31,2.39,0,1.36,0,2.72,0,4.07,0,1-.4,1.41-1.41,1.39-2.88,0-5.76,0-8.63,0H-69.63c-2.18,0-2.18,0-2.2-2.26,0-1.28,0-2.56,0-3.83,0-1.69,0-1.74,1.76-1.75,4.39,0,8.78,0,13.18,0Z" transform="translate(329 -304.89)"/><path class="cls-16" d="M486.45,401.15a4,4,0,0,1,1.26,2.47,35.37,35.37,0,0,0,15.57,21,2.77,2.77,0,0,1,1.51,3.09c-.25,1.89-.21,3.82-.29,5.73,0,1.07-.47,1.47-1.52,1-7.23-3.16-13.49-7.52-17.81-14.32a4.23,4.23,0,0,1-.57-3C485.22,411.9,485.82,406.59,486.45,401.15Z" transform="translate(329 -304.89)"/><path class="cls-21" d="M95.78,368.35c-1.52,4.75-3.25,9.28-4.35,14a147.16,147.16,0,0,0-3.54,30.38c-.09,4.07,0,8.13.08,12.2,0,1.75,0,1.77-1.67,1.82-1,0-1.92-.05-2.87,0-1.31.09-1.62-.54-1.6-1.72.22-13.69,1.29-27.26,5.46-40.42a92.84,92.84,0,0,1,7.06-15.69A1.07,1.07,0,0,1,95.78,368.35Z" transform="translate(329 -304.89)"/><path class="cls-14" d="M89.24,373.34a2.28,2.28,0,0,1-.27,2.3,95.73,95.73,0,0,0-7.22,26,164,164,0,0,0-1.57,21.46c0,.64,0,1.28-.07,1.92-.11,1.72-.12,1.79-1.73,1.77-5.16-.08-4.39.81-4.12-4.24.63-11.67,2.32-23.17,6.54-34.18a64.19,64.19,0,0,1,6.66-12.95A5.43,5.43,0,0,1,89.24,373.34Z" transform="translate(329 -304.89)"/><path class="cls-18" d="M335.63,363.85c.06-5,.77-9.29,1.17-13.58.49-5.32,1.13-10.63,1.7-15.94.07-.64.15-1.27.2-1.91.06-.84.43-1.22,1.34-1.3,3.41-.28,3.59-.2,3.24,3.16-1.15,11.19-2.36,22.38-3.54,33.57-.45,4.2-.85,8.41-1.34,12.61-.08.72.18,2-.77,2-1.14,0-.68-1.23-.73-1.89C336.41,374.77,336,369,335.63,363.85Z" transform="translate(329 -304.89)"/><path class="cls-18" d="M426,377.83c-1.18-.31-1-.86-1.06-1.29-.86-7.61-1.68-15.22-2.59-22.82a33,33,0,0,1-.26-5.25q.38-9,.83-17.94c.09-1.78.13-1.82,2-1.81,4,0,3.41-.41,3.25,3.46-.45,10.13-1,20.25-1.36,30.37C426.57,367.61,425.37,372.6,426,377.83Z" transform="translate(329 -304.89)"/><path class="cls-16" d="M-53.85,375.32c5.27,0,10.54,0,15.81,0,1.82,0,1.87,0,1.86,1.87,0,4.54.57,3.82-3.73,3.84-9.66,0-19.33,0-29,0-.56,0-1.12,0-1.67,0-.93,0-1.3-.38-1.26-1.29a25,25,0,0,0,0-2.87c-.12-1.32.53-1.59,1.7-1.58C-64.71,375.34-59.28,375.32-53.85,375.32Z" transform="translate(329 -304.89)"/><path class="cls-20" d="M80.56,382.47a2.64,2.64,0,0,1-.27,2.57A98.41,98.41,0,0,0,73.6,410.9a113.77,113.77,0,0,0-1,12.64,5.79,5.79,0,0,1,0,.72c-.25,2.47-.25,2.47-2.67,2.49h-1c-2.54,0-2.63-.08-2.33-2.54a124.4,124.4,0,0,1,4.22-22A72.71,72.71,0,0,1,78.51,385,8.07,8.07,0,0,1,80.56,382.47Z" transform="translate(329 -304.89)"/><path class="cls-18" d="M-71.72,445.87c0-1.44-.1-2.87-.11-4.3,0-2.09,0-2.14,2-2.16,4.47,0,8.94,0,13.41,0,3.44,0,6.87,0,10.31,0a8.82,8.82,0,0,1,2.61.18c.87,1.74.44,3.59.39,5.39,0,1.46-1.27,1.15-2.18,1.15q-11.94,0-23.9,0A5.26,5.26,0,0,1-71.72,445.87Z" transform="translate(329 -304.89)"/><path class="cls-22" d="M630.75,386.84a43.93,43.93,0,0,0-5.73-5.6c-.5-.4-.45-1-.45-1.54,0-7.09,0-14.18,0-21.27,0-1,.27-1.4,1.37-1.39,5.31,0,5.31,0,5.32,5.33v24.26Z" transform="translate(329 -304.89)"/><path class="cls-18" d="M575.71,364.25c4.47-.68,9-.11,13.53.17,7.74.48,15.46,1.17,23.18,1.79,2.23.17,2.23.21,2.18,2.37,0,1.43-.11,2.87-.11,4.31,0,.94-.4,1.25-1.32,1.17a12.6,12.6,0,0,1-3.28-.62c-10.4-3.72-21.15-6.15-31.89-8.62C577.23,364.65,576.47,364.44,575.71,364.25Z" transform="translate(329 -304.89)"/><path class="cls-23" d="M497.33,433.65c-1.18,1.1-1.12,2.43-1.22,3.68-.13,1.51-.14,3-.18,4.54,0,.93-.37,1.4-1.33,1a45.2,45.2,0,0,1-11.09-7,1.66,1.66,0,0,1-.72-1.43c.41-3.93.85-7.86,1.5-11.89A45.46,45.46,0,0,0,497.33,433.65Z" transform="translate(329 -304.89)"/><path class="cls-24" d="M730.88,368.15H709c-.64,0-1.28,0-1.92,0-.89-.08-.86-.77-.86-1.43s.1-1.14.84-1.21c.55-.05,1.12,0,1.67,0h43.92c.4,0,.8,0,1.2,0,.94,0,1.23.49,1.23,1.36s-.24,1.39-1.21,1.36c-.56,0-1.12,0-1.68,0Z" transform="translate(329 -304.89)"/><path class="cls-10" d="M-203.85,329.34c0-2.55,0-5.1,0-7.65,0-1.77.08-1.78,2-1.81,1.12,0,2.24,0,3.35,0s1.4.47,1.37,1.46q-.24,8.13-.41,16.26c0,.88-.32,1.34-1.26,1.32-1.36,0-2.72-.05-4.07,0-1.07,0-1.37-.46-1.36-1.45,0-2.71,0-5.42,0-8.13Z" transform="translate(329 -304.89)"/><path class="cls-10" d="M-256,329.25c0,2.7,0,5.41,0,8.11,0,1.1-.35,1.61-1.51,1.56-1.35-.07-2.71,0-4.06,0-.79,0-1.19-.33-1.14-1.14,0-.24,0-.48,0-.72.14-5.16.3-10.33.39-15.5,0-1.21.36-1.79,1.64-1.67,1.57.13,3.52-.64,4.63.31s.29,3,.36,4.54,0,3,0,4.53Z" transform="translate(329 -304.89)"/><path class="cls-25" d="M72.41,391.07c.57.82.17,1.3,0,1.79-4.32,10.08-6.48,20.67-7.49,31.53,0,.39-.09.79-.12,1.19-.06.88-.52,1.15-1.4,1.21-3.62.25-3.68.26-3.12-3.27,1.7-10.72,4.72-21,10.49-30.31A6,6,0,0,1,72.41,391.07Z" transform="translate(329 -304.89)"/><path class="cls-22" d="M-61.7,454c-2.86,0-5.73,0-8.6,0-1.11,0-1.51-.34-1.56-1.49-.17-4.26-.22-4.26,4-4.26,5,0,10,0,15.07,0,1.7,0,1.76.05,1.75,1.71,0,4.88.59,3.92-3.76,4C-57.07,454-59.38,454-61.7,454Z" transform="translate(329 -304.89)"/><path class="cls-26" d="M723.46,424.41c5,0,10,0,15.07,0,.58,0,1.38-.3,1.65.53a4.4,4.4,0,0,1,0,2.36c-.07.32-.45.41-.78.42H708.05a1.88,1.88,0,0,1-1.65-2.88c.36-.58,1-.45,1.51-.45h15.55Z" transform="translate(329 -304.89)"/><path class="cls-18" d="M268,355.58c-.85-.28-.79-.91-.92-1.4a75.09,75.09,0,0,0-6.91-17.54c-1.22-2.19-1.07-4.63-1.38-7-.1-.75.4-.94,1-.94,1.43,0,2.87,0,4.31,0,1.06,0,1.34.54,1.44,1.47.79,6.89,1.64,13.77,2.39,20.67A43.9,43.9,0,0,1,268,355.58Z" transform="translate(329 -304.89)"/><path class="cls-27" d="M772.71,428.21c1-.69.62-1.74.63-2.64q0-13,0-26.05,0-20.81,0-41.59c0-.91.36-1.94-.5-2.71q0-11.75,0-23.49c0-.56,0-1.12,0-1.67s-.12-1.11.58-1.08.45.71.49,1.13,0,1,0,1.44V481.34c0,.8-.06,1.6-.08,2.4-.71-.52-.49-1.29-.5-2,0-1.75,0-3.49,0-5.24,0-.69.17-1.45-.55-1.95q0-10.4.06-20.79,0-11.25,0-22.48C772.84,430.28,772.76,429.24,772.71,428.21Z" transform="translate(329 -304.89)"/><path class="cls-28" d="M-140.49,402.34a7.6,7.6,0,0,0-3.07-.24c-1.23.06-1.69-.4-1.66-1.65.07-3,0-6,0-9.06,0-1.74,0-3.49,0-5.24,0-2,0-2,2.16-2,.87,0,1.74-.09,2.61-.14,1.17.15,1,1.09,1,1.82q.06,7.39,0,14.78C-139.46,401.3-139.31,402.23-140.49,402.34Z" transform="translate(329 -304.89)"/><path class="cls-21" d="M-65.25,462.62c-1.76,0-3.51,0-5.27,0-.89,0-1.35-.34-1.3-1.26a1.92,1.92,0,0,0,0-.24c.1-1.66-.66-3.71.33-4.88s3.15-.4,4.79-.46c2.16-.09,4.32,0,6.47,0,1.12,0,1.5.41,1.56,1.53.31,5.35.34,5.35-4.9,5.35h-1.68Z" transform="translate(329 -304.89)"/><path class="cls-29" d="M55.17,311.2a5.92,5.92,0,0,0-.23,2.83q0,55.23,0,110.45v2.59a3.23,3.23,0,0,1-.47-2.37q0-55.11,0-110.22c0-3.7.34-3.35-3.33-3.35H.8a3.24,3.24,0,0,1,2.36-.47q24.33,0,48.67,0c.86,0,1.77.26,2.57-.3C55.15,310.18,55.33,310.54,55.17,311.2Z" transform="translate(329 -304.89)"/><path class="cls-30" d="M-302.19,380.59c0-1,0-2,0-3.07.06-4.79.1-9.58.19-14.37,0-2.14.09-2.17,2.13-2.2,1,0,2.08,0,3.12,0,.81,0,1.09.4,1.07,1.2-.1,3.27-.2,6.55-.21,9.82,0,1.19-.55,1.54-1.62,1.46-.32,0-.64,0-1,0-2.78,0-2.85.08-3.07,3,0,.72,0,1.44-.07,2.15S-301.45,380-302.19,380.59Z" transform="translate(329 -304.89)"/><path class="cls-31" d="M346.67,523.69c.32-.22-.75-1.44.86-.9s3.27.27,4.93.27q36.54,0,73.08,0c.91,0,1.93-.36,2.74.43-.79.83-1.81.43-2.71.43q-32.44,0-64.89,0c-4.23,0-8.46,0-12.69,0C347.52,524,347,524.12,346.67,523.69Z" transform="translate(329 -304.89)"/><path class="cls-32" d="M-278.2,341.28a3.84,3.84,0,0,1,0-.48c.21-1.46-.68-3.46.5-4.29,1.36-.95,3.39-.25,5.13-.31.7,0,1,.43,1,1.08q-.15,5.13-.31,10.26c0,.7-.44,1-1.1.95-.87,0-1.75,0-2.63,0-.7,0-1.45-.13-2,.51-.71.05-.72-.46-.7-.93A53.2,53.2,0,0,1-278.2,341.28Z" transform="translate(329 -304.89)"/><path class="cls-33" d="M-294,362.9c.06-2.71.12-5.41.19-8.12.07-2.27.08-2.27,2.23-2.3,3.89-.05,3.9-.05,3.81,3.93-.06,2.31-.19,4.62-.21,6.93,0,1.13-.47,1.46-1.59,1.5-1.3,0-2.72-.53-3.9.5C-294.78,364.77-294.11,363.77-294,362.9Z" transform="translate(329 -304.89)"/><path class="cls-34" d="M752.8,414.74a17.35,17.35,0,0,0,4.72-.13c1,.15.69.93.69,1.5,0,3.33,0,6.67,0,10,0,1.32-.35,1.77-1.73,1.8-4.52.09-4.52.15-4.52-4.24,0-2.3,0-4.6,0-6.91C752,416,751.79,415.12,752.8,414.74Z" transform="translate(329 -304.89)"/><path class="cls-35" d="M490.13,442.51c-1.68,1.13-1.28,2.65-1.41,4a20.87,20.87,0,0,1-.43,4.46,23.36,23.36,0,0,1-6.42-3,1,1,0,0,1-.5-1c.37-3.06.51-6.16,1.18-9.55A62.11,62.11,0,0,0,490.13,442.51Z" transform="translate(329 -304.89)"/><path class="cls-36" d="M-285.87,352.29c0-2.07.05-4.13.05-6.2,0-.89.38-1.22,1.27-1.31,4.44-.43,4.54-.37,4.43,4.05-.05,2.22-.16,4.44-.28,6.66-.09,1.72-.11,1.72-1.73,1.79-.48,0-.95,0-1.43,0a1.6,1.6,0,0,0-1.81,1.73c-.74.06-.68-.5-.66-.93A37.57,37.57,0,0,1-285.87,352.29Z" transform="translate(329 -304.89)"/><path class="cls-18" d="M-309.38,371.51c.14-3.13-.5-2.89,3-2.91,3,0,2.65-.13,2.53,2.77-.12,2.71-.2,5.42-.19,8.13,0,1.25-.47,1.71-1.69,1.62-.87-.07-1.76,0-2.63,0-1.12.45-1.22-.27-1.2-1.06A81.66,81.66,0,0,1-309.38,371.51Z" transform="translate(329 -304.89)"/><path class="cls-37" d="M-147,393.16c0,2.46,0,4.93,0,7.39,0,1.11-.38,1.61-1.53,1.55s-2.38,0-3.58,0c-1,0-1.49-.29-1.46-1.36.05-1.9.06-3.81,0-5.72,0-1.07.51-1.3,1.47-1.35,3.42-.16,3.41-.2,3.53-3.52.06-1.59.17-3.18.27-4.77,0-.45,0-1.11.59-1.12.83,0,.65.76.65,1.26C-147,388.07-147,390.61-147,393.16Z" transform="translate(329 -304.89)"/><path class="cls-38" d="M-18,492.83c-.86-.78-.47-1.81-.47-2.71q0-42.67,0-85.34,0-18,0-36c0-.91.39-1.95-.59-2.66a8.92,8.92,0,0,0,.46-4,46.16,46.16,0,0,1,.19-5c.63.71.43,1.55.43,2.33q0,47.26,0,94.54Q-17.95,473.45-18,492.83Z" transform="translate(329 -304.89)"/><path class="cls-39" d="M622.77,379.31a6.63,6.63,0,0,1-1.13-.37c-1.48-.91-3.48-1.32-4.41-2.71s-.23-3.4-.33-5.13c0-.64,0-1.27,0-1.91,0-2.53,0-2.53,2.44-2.39.4,0,.79,0,1.19.08,2.21.27,2.23.28,2.24,2.45C622.78,372.57,622.77,375.8,622.77,379.31Z" transform="translate(329 -304.89)"/><path class="cls-40" d="M-138.94,484.19a.56.56,0,0,1-.52-.43,5.87,5.87,0,0,1-.2-2.6q0-29.48,0-58.94c0-5.26-.46-10.52-.25-15.79.31-7.66.27-15.32.22-23a3,3,0,0,1,.26-1.86c.31-3.76-.61-7.45-.47-11.2,0-.75-.28-1.6.45-2.23.14.3,0-.17.24,0a.24.24,0,0,1,.13.17c.05.55.12,1.1.12,1.65Q-138.94,427.06-138.94,484.19Z" transform="translate(329 -304.89)"/><path class="cls-31" d="M601.07,523.52c.72-.76,1.66-.44,2.5-.44q13.44,0,26.86,0,43.76,0,87.51,0a40.18,40.18,0,0,0,4.25,0c-.7.75-1.58.49-2.39.49H604.19a4.29,4.29,0,0,0-2.57.28A.39.39,0,0,1,601.07,523.52Z" transform="translate(329 -304.89)"/><path class="cls-41" d="M-145.2,333.69a9.59,9.59,0,0,1,0-1.2c.12-1.17-.6-2.8.36-3.4,1.32-.81,3.1-.3,4.68-.23.61,0,.67.57.67,1.06,0,2.64,0,5.27,0,7.91,0,.84-.47,1-1.21,1.09-4.47.44-4.51.42-4.51-4Z" transform="translate(329 -304.89)"/><path class="cls-42" d="M-139.43,381.59l.06,67.72q0,15.92,0,31.82c0,.88-.06,1.75-.09,2.63-.69-.85-.37-1.85-.37-2.77q-.06-31.26-.1-62.52c0-.92.34-1.93-.4-2.75-.3-3.43,0-6.86,0-10.28a11.5,11.5,0,0,0-.16-3.1,1.18,1.18,0,0,0,.63-1.18q0-8.12,0-16.22a1.09,1.09,0,0,0-.56-1C-139.78,383.3-140.34,382.13-139.43,381.59Z" transform="translate(329 -304.89)"/><path class="cls-43" d="M809.3,531.31c.73-.94,1.77-.56,2.68-.56q26.5,0,53,0c.13.46,0,.79-.51.83s-1.27,0-1.91,0q-25.49,0-51,0C810.83,531.59,810,531.86,809.3,531.31Z" transform="translate(329 -304.89)"/><path class="cls-33" d="M-269.45,328.94c1.65-.19,3.68-.76,4.83.2s.23,3,.3,4.55c0,1.11,0,2.22-.08,3.33-.11,1.84-.12,1.81-1.9,1.9-.92,0-1.93-.3-2.72.49-.37,0-.68-.13-.67-.48C-269.59,335.6-270.07,332.26-269.45,328.94Z" transform="translate(329 -304.89)"/><path class="cls-44" d="M-206,333.89v3.82c0,.75-.3,1.11-1.11,1.21-3.52.43-3.82.2-3.72-3.3,0-1.83.15-3.66.2-5.49,0-.83.24-1.27,1.21-1.35,3.58-.31,3.69-.24,3.59,3.44,0,.56,0,1.12,0,1.67Z" transform="translate(329 -304.89)"/><path class="cls-45" d="M752.8,414.74a2.06,2.06,0,0,0-.59,1.74c0,3.18,0,6.37,0,9.56,0,1.23.42,1.68,1.66,1.66,5-.1,4.06.54,4.15-3.93,0-2.31,0-4.62,0-6.93,0-.76.27-1.62-.48-2.23a4.32,4.32,0,0,0,.47-2.55V371.32a10.91,10.91,0,0,0-.35-2.59,3.17,3.17,0,0,1,.48-3.23,3.33,3.33,0,0,1,.35,2.2q0,28.88,0,57.76c0,.4,0,.8,0,1.2,0,1-.36,1.5-1.39,1.48-1.36,0-2.72,0-4.08,0-.92,0-1.27-.5-1.27-1.36,0-3.6,0-7.19,0-10.79C751.74,415.26,751.93,414.72,752.8,414.74Z" transform="translate(329 -304.89)"/><path class="cls-46" d="M638.5,404.73V328.87c.69.41.51,1.11.51,1.72l0,78c0,.24,0,.47-.11,1.1C637.53,407.9,637.92,406.32,638.5,404.73Z" transform="translate(329 -304.89)"/><path class="cls-31" d="M245.86,523.09c16,0,31.94,0,47.91-.06,6.53,0,13.06.15,19.6-.08,3.08-.11,6.22,0,9.33.1,2.24.05,2.24,0,2.62-2.64a11.21,11.21,0,0,1,.3,3.16h0a4.15,4.15,0,0,1-2.12.21H248.09a3.69,3.69,0,0,1-2.1-.23Z" transform="translate(329 -304.89)"/><path class="cls-47" d="M278,491l76,0c.64,0,1.28,0,1.91,0,1,.06,1.51-.4,1.35-1.95a5.06,5.06,0,0,1,.56,2.47h0a4.49,4.49,0,0,1-2.12.19H280.24a3.77,3.77,0,0,1-2.1-.22Z" transform="translate(329 -304.89)"/><path class="cls-13" d="M246,523.54l79.63,0c-.56.67-1.34.39-2,.39q-37.82,0-75.63,0C247.31,524,246.53,524.26,246,523.54Z" transform="translate(329 -304.89)"/><path class="cls-8" d="M278.14,491.42h78c.56,0,1.12,0,1.68,0-.48.65-1.17.36-1.77.37q-38.07,0-76.15,0C279.29,491.81,278.58,492.13,278.14,491.42Z" transform="translate(329 -304.89)"/><path class="cls-48" d="M318.27,531.21h-79v-.47h79.1Z" transform="translate(329 -304.89)"/><path class="cls-49" d="M-32.43,378.44c0-3.46-.33-3.11,3-3.11,3.06,0,2.87-.4,2.86,2.77,0,4,.44,3.45-3.37,3.48-2.49,0-2.49,0-2.51-2.43Z" transform="translate(329 -304.89)"/><path class="cls-12" d="M-286.77,474.15c2.22.19,3.17,1.31,2.24,3.21a3.13,3.13,0,0,0,0,2.81,6.84,6.84,0,0,1,0,3.78,1.15,1.15,0,0,1-1,.93c-.55,0-.38-.63-.59-.83-.73-.66-1.11-1.25-.46-2.2a2,2,0,0,0-.14-2.25c-.18-.29-.47-.59-.75-.32-.58.57-1,.29-1.68.1-.81-.24.19,1.06-.65,1.1l-.91-.51a3.57,3.57,0,0,1,.08-2.07c.55-2.39.52-2.39,2.81-1.25.2.25.29-.07.18-.1-.92-.19-.95-.94-.84-1.66C-288.32,473.76-287.62,473.75-286.77,474.15Z" transform="translate(329 -304.89)"/><path class="cls-50" d="M-66.54,467.29c0,3.39.47,3-3,3-.32,0-.64,0-1,0-1.08.1-1.4-.46-1.33-1.43,0-.39,0-.79,0-1.18.14-1.07-.57-2.52.4-3.12,1.19-.74,2.77-.27,4.18-.22a.73.73,0,0,1,.71.8C-66.53,465.87-66.54,466.58-66.54,467.29Z" transform="translate(329 -304.89)"/><path class="cls-51" d="M783.91,531.22H729.82l0-.48h50.44c3.37,0,3.24.3,3.21-3,0-.62-.14-1.29.44-1.77A10,10,0,0,1,783.91,531.22Z" transform="translate(329 -304.89)"/><path class="cls-52" d="M750.4,421.27c0,1.59,0,3.18,0,4.77,0,1.21-.55,1.76-1.74,1.72-.88,0-1.75,0-2.63,0-1.83,0-2-.29-1.88-2.11.06-.93.47-1.27,1.34-1.25s1.43,0,2.15,0c1.2.06,1.75-.43,1.71-1.68-.06-1.75,0-3.5,0-5.25,0-.56,0-1.11,0-1.67,0-.34.2-.63.59-.52a.73.73,0,0,1,.38.5,13.49,13.49,0,0,1,.06,1.42v4.06Z" transform="translate(329 -304.89)"/><path class="cls-53" d="M-151.34,451.5c0,.17,0,.81,0,1.44-.06,2-1.36,2.85-3.24,2.11a.85.85,0,0,1-.59-.91c.07-2,.16-4,.26-5.95a.82.82,0,0,1,.9-.88c.47,0,.95,0,1.43,0,1-.07,1.5.3,1.39,1.37C-151.27,449.45-151.28,450.24-151.34,451.5Z" transform="translate(329 -304.89)"/><path class="cls-54" d="M639,484.11c-.82-.69-.45-1.64-.45-2.47q0-20.59,0-41.19c0-1.44,0-2.88,0-4.31-1.13-2-.2-4,.5-6Z" transform="translate(329 -304.89)"/><path class="cls-55" d="M816.48,523.09c1.09-.53,2.19,0,3.28,0,3-.09,5.91,0,8.86,0H869a5.3,5.3,0,0,0,3.25-.53v0c.26.51.18,1-.38,1.15a5.41,5.41,0,0,1-1.66.07H818.49a3.18,3.18,0,0,1-1.87-.23Z" transform="translate(329 -304.89)"/><path class="cls-8" d="M904.43,490.39c.49.73.68,1.36-.54,1.42-.56,0-1.12,0-1.68,0q-25.49,0-51,0c-.81,0-1.75.43-2.46-.37a5.08,5.08,0,0,1,2.59-.22q25.13,0,50.26,0c.9,0,2,.39,2.65-.6Z" transform="translate(329 -304.89)"/><path class="cls-13" d="M816.62,523.54q26.53,0,53.07,0c.9,0,2.18.6,2.55-1,.51.6.61,1.16-.32,1.37a8.42,8.42,0,0,1-1.67,0q-25.69,0-51.39,0C818.11,523.94,817.26,524.3,816.62,523.54Z" transform="translate(329 -304.89)"/><path class="cls-56" d="M-153.42,388.14c0-.71,0-1.42,0-2.13.06-1.78,1-2.42,2.77-1.87.59.18.67.6.66,1.09-.06,1.9-.13,3.79-.2,5.69,0,1.33-1,1.11-1.89,1.15s-1.52-.23-1.46-1.32c.05-.87,0-1.74,0-2.61Z" transform="translate(329 -304.89)"/><path class="cls-43" d="M904.28,490.57c0,.44-.23.77-.7.8-.72,0-1.44,0-2.15,0H848.78l-.15-.46,52.6,0A6.75,6.75,0,0,0,904.28,490.57Z" transform="translate(329 -304.89)"/><path class="cls-43" d="M-129.46,531.22h-54.09v-.49h54.17Z" transform="translate(329 -304.89)"/><path class="cls-57" d="M-286.77,474.15c-.47.1-1.11-.27-1.2.68s-.19,1,1.18,2.1a3,3,0,0,1-3.2-1.12c.51,1.9-.3,3-.72,4.16-4,.08-7.93.2-11.9-.06.62-.73,1.47-.46,2.23-.47,2.45,0,4.91,0,7.37,0,.62,0,1.3-.14.26-.79-.08-.05-.1-.3-.05-.42.95-2.53.95-2.53.23-4.51C-290.6,473.9-288.64,473.16-286.77,474.15Z" transform="translate(329 -304.89)"/><path class="cls-58" d="M-71.72,445.87h27a1.12,1.12,0,0,0,1.3-1.3c0-1.67,0-3.34,0-5,.44-.05.85,0,.86.54,0,1.83,0,3.66,0,5.49a.83.83,0,0,1-.86.92c-.39,0-.79,0-1.19,0-8.37,0-16.74,0-25.11,0C-70.39,446.49-71.35,447-71.72,445.87Z" transform="translate(329 -304.89)"/><path class="cls-59" d="M839.09,473.18V432h.49v41Z" transform="translate(329 -304.89)"/><path class="cls-43" d="M-313.65,530.74q19.38,0,38.77,0c.84,0,1.77-.32,2.49.44h0a2.44,2.44,0,0,1-1.61.24h-37.94a2.59,2.59,0,0,1-1.62-.23c0-.1-.1-.2-.13-.3A.37.37,0,0,1-313.65,530.74Z" transform="translate(329 -304.89)"/><path class="cls-8" d="M-313.57,531.21h41.17c-.35.66-1,.4-1.48.4q-19.1,0-38.2,0C-312.59,531.6-313.21,531.86-313.57,531.21Z" transform="translate(329 -304.89)"/><path class="cls-60" d="M-77.61,478.6h-1c-1.85-.05-2-.22-1.9-2.11,0-1,.36-1.47,1.4-1.42s2.07,0,3.1,0c.58,0,1.2,0,1.23.79s.35,1.77-.31,2.5c-.17.19-.58.2-.89.22-.56,0-1.12,0-1.67,0Z" transform="translate(329 -304.89)"/><path class="cls-61" d="M-171.06,515.47c0-6.89-.05-13.78-.1-20.67,0-.84.3-1.77-.48-2.47a64.29,64.29,0,0,1,.13-7.33c.91.29.76.93.76,1.44q0,13.95,0,27.9A4.73,4.73,0,0,1-171.06,515.47Z" transform="translate(329 -304.89)"/><path class="cls-62" d="M334.74,348.94a.79.79,0,0,1-.5-.87,71.56,71.56,0,0,0-.39-7.61c-.13-1.74.09-2,1.23-1.95,1.66,0,1.13,1.24,1.06,2.07-.21,2.38-.5,4.74-.78,7.11C335.3,348.14,335.39,348.67,334.74,348.94Z" transform="translate(329 -304.89)"/><path class="cls-63" d="M-149.62,338.93c-.4,0-.81,0-1.2,0-.93.05-1.55-.16-1.48-1.3.05-.95.3-1.54,1.38-1.5.72,0,1.44,0,2.16,0,1.69,0,1.79.18,1.82,1.47s-.78,1.36-1.72,1.32Z" transform="translate(329 -304.89)"/><path class="cls-64" d="M-269.45,328.94c0,2.76-.07,5.52-.07,8.28,0,.75-.29,1.6.5,2.19l-.52,8.95c-.95-.24-.84-.79-.81-1.21.34-5.74.31-11.48.42-17.22C-269.92,329.54-269.9,329.13-269.45,328.94Z" transform="translate(329 -304.89)"/><path class="cls-65" d="M-278.2,341.28a47.91,47.91,0,0,1,.11,5.49c0,.76-.31,1.62.44,2.24a41.21,41.21,0,0,1-.58,7.76c-.61-.08-.44-.54-.43-.82q0-6.78.16-13.55A4.78,4.78,0,0,1-278.2,341.28Z" transform="translate(329 -304.89)"/><path class="cls-66" d="M-280.65,408.57c.78.26.65.92.7,1.51.06.74-.27,1.54.35,2.19,0,2.62.27,5.27-.86,7.81v-8.2A11.49,11.49,0,0,0-280.65,408.57Z" transform="translate(329 -304.89)"/><path class="cls-67" d="M-285.87,352.29c0,1.5,0,3,.1,4.49,0,.76-.25,1.59.4,2.25a26.78,26.78,0,0,1-.2,6C-286.47,363.15-286.51,355-285.87,352.29Z" transform="translate(329 -304.89)"/><path class="cls-68" d="M270.17,372.71c-.4-2.85-.81-5.69-1.19-8.54a1.36,1.36,0,0,1,.58-1.23C270.11,364.85,270.79,371.43,270.17,372.71Z" transform="translate(329 -304.89)"/><path class="cls-69" d="M-296,427.64l.57.56v8.72C-296.52,435.28-296.65,430.05-296,427.64Z" transform="translate(329 -304.89)"/><path class="cls-70" d="M-294,362.9c.37.77-.25,1.76.53,2.44a60.38,60.38,0,0,1-.18,6.86c0,.29-.14.62-.78.89,0-2.88,0-5.64,0-8.41C-294.42,364.06-294.54,363.4-294,362.9Z" transform="translate(329 -304.89)"/><path class="cls-71" d="M-85,484.68c.71,0,1.43,0,2.13,0,.49,0,.65.38.65.81s-.21.77-.68.78c-1.43,0-2.85,0-4.27,0a.73.73,0,0,1-.78-.72.78.78,0,0,1,.82-.92c.71,0,1.42,0,2.13,0Z" transform="translate(329 -304.89)"/><path class="cls-72" d="M478.72,469.88a55.1,55.1,0,0,1,.81-7.64c.6,0,.55.27.52.44-.48,3.38-.33,6.8-.48,10.2a3.44,3.44,0,0,1-.33.87C478.33,472.56,479.42,471.1,478.72,469.88Z" transform="translate(329 -304.89)"/><path class="cls-73" d="M-309.38,371.51c.28,2.7,0,5.41.05,8.11,0,.71-.12,1.51,1,1.52-1.48,1.35-.64,3.29-1.19,5.25a8,8,0,0,1-.28-3.11c0-3.24.05-6.48.1-9.72C-309.71,372.87-309.88,372.13-309.38,371.51Z" transform="translate(329 -304.89)"/><path class="cls-74" d="M-304.11,433.42c.69.37.51,1,.56,1.63s-.26,1.56.45,2.17a31.07,31.07,0,0,1-.52,6.75h-.49Z" transform="translate(329 -304.89)"/><path class="cls-75" d="M-310.79,484.7c1,2.4,1,2.4,3.88,2.4,2.23,0,4.46,0,6.7,0,.68,0,1.48-.24,1.88.64-3.56,0-7.12,0-10.68,0-2.05,0-2.05,0-1.93-2.11C-310.92,485.32-310.84,485-310.79,484.7Z" transform="translate(329 -304.89)"/><path class="cls-76" d="M-286.79,460.73c1,2.4,1,2.4,3.87,2.4h8.07v.49h-12A5.55,5.55,0,0,1-286.79,460.73Z" transform="translate(329 -304.89)"/><path class="cls-75" d="M-214.76,445.46A.93.93,0,0,1-214,445l13.88,0a.26.26,0,0,1,.18.11,2.87,2.87,0,0,1-.05.41C-204.91,445.64-209.84,445.59-214.76,445.46Z" transform="translate(329 -304.89)"/><path class="cls-77" d="M-311.76,441.11c.77.36.51,1.07.56,1.67s-.24,1.43.37,2c.28,2.47-.45,4.85-.93,7.28Z" transform="translate(329 -304.89)"/><path class="cls-75" d="M-270.45,445.39v-1.85c.51.88.94,1.44,2.08,1.4,2.77-.11,5.54-.05,8.31,0,.52,0,1.08-.18,1.58.15,0,0,.05.14,0,.2a.8.8,0,0,1-.13.19A112.09,112.09,0,0,1-270.45,445.39Z" transform="translate(329 -304.89)"/><path class="cls-78" d="M352,503c-.56-.58-.25-1.39-.6-2.15a50.87,50.87,0,0,1-6.55.19c.93-.95,2.12-.45,3.18-.48,2.68-.08,2.68,0,3.4-2.74C352.43,499.57,351.88,501.32,352,503Z" transform="translate(329 -304.89)"/><path class="cls-79" d="M271.83,383.54c-.83,1.37,0,2.93-.5,4.34-.62-1.35-.33-2.79-.39-4.19a55.44,55.44,0,0,1,.09-5.76A12.75,12.75,0,0,1,271.83,383.54Z" transform="translate(329 -304.89)"/><path class="cls-80" d="M-287.78,420.87l.61.59a32.57,32.57,0,0,1-.34,6.52C-288.3,426.29-288.36,423.38-287.78,420.87Z" transform="translate(329 -304.89)"/><path class="cls-75" d="M-155.64,445.45c-.19-.21-.16-.51.08-.51q5.87,0,11.71.06c.19,0,.38.25.57.39A121.33,121.33,0,0,1-155.64,445.45Z" transform="translate(329 -304.89)"/><path class="cls-81" d="M-34.43,381.3a12.93,12.93,0,0,1-.11-5.85A7,7,0,0,1-34.43,381.3Z" transform="translate(329 -304.89)"/><path class="cls-82" d="M-269,381.61h11.86v.48h-11.77a1.73,1.73,0,0,1-.14-.31S-269,381.67-269,381.61Z" transform="translate(329 -304.89)"/><path class="cls-83" d="M-277.65,391.2h11.85v.48h-11.77a2.88,2.88,0,0,1-.13-.31A.38.38,0,0,1-277.65,391.2Z" transform="translate(329 -304.89)"/><path class="cls-84" d="M478.72,469.88c.9,1.19.18,2.6.52,3.87-.22,2.07.21,4.2-.5,6.23,0-1.22,0-2.45-.07-3.67,0-.6.12-1.25-.48-1.69Z" transform="translate(329 -304.89)"/><path class="cls-85" d="M-279.09,455a1.23,1.23,0,0,1,1-.48h9.74a1.22,1.22,0,0,1,1.21.56C-271.11,455.12-275.1,455.27-279.09,455Z" transform="translate(329 -304.89)"/><path class="cls-86" d="M439.3,310.63l51.1,0h1.67c1.91.05,1.91.05,1.83,2.37-.64-.45,0-1.49-.82-1.71a6.53,6.53,0,0,0-1.88-.18q-24.58,0-49.18,0c-.91,0-1.94.36-2.71-.49Z" transform="translate(329 -304.89)"/><path class="cls-87" d="M328.84,311.11H275.52c.3-.12-.12.09,0-.19,0-.06.1-.15.16-.16a9.39,9.39,0,0,1,1.18-.1h52Z" transform="translate(329 -304.89)"/><path class="cls-88" d="M839.58,370.62c0-4.79,0-9.58,0-14.37,0-2.42.18-2.59,2.58-2.61,3.52,0,7,0,10.55,0,.88,0,1.76.05,2.63.13,5.67.54,9.52,3.65,11,9.12a27.6,27.6,0,0,1-.32,16.05c-1.82,5.68-5.62,8.45-11.6,8.55-4.15.07-8.31,0-12.46,0-2.25,0-2.41-.19-2.41-2.52C839.57,380.2,839.58,375.41,839.58,370.62Z" transform="translate(329 -304.89)"/><path class="cls-89" d="M855.26,311.06H785.5v-.24h69.85Z" transform="translate(329 -304.89)"/><ellipse class="cls-90" cx="1177.41" cy="83.18" rx="11.11" ry="0.14"/><path class="cls-91" d="M213.69,389.47c-.07,9.3-.14,16.57-1.34,23.77a40.77,40.77,0,0,1-1.79,6.95c-2.34,6.5-6.85,10.47-13.7,11.62a28.74,28.74,0,0,1-11.2-.27,16.17,16.17,0,0,1-11.44-9,36.58,36.58,0,0,1-3.43-13.15,173.65,173.65,0,0,1,.28-37.31,36.62,36.62,0,0,1,2.35-9.26c2.53-6.31,7.08-10.08,13.88-11.09a29.36,29.36,0,0,1,11.66.52,15.82,15.82,0,0,1,11,9.48c2.12,4.83,2.84,10,3.2,15.16C213.53,381.75,213.76,386.62,213.69,389.47Z" transform="translate(329 -304.89)"/><path class="cls-92" d="M581.71,351.74H566.08v-.23H581.8Z" transform="translate(329 -304.89)"/><path class="cls-93" d="M-213.95,393c0-2.79,0-5.58,0-8.38,0-2,.17-2.12,2-2.14q6.36,0,12.71,0c2,0,2.2.26,2.16,2.25q-.18,8.51-.44,17c-.05,1.78-.3,2-2.18,2q-6.36,0-12.71,0c-1.84,0-2-.19-2-2.13,0-2.87,0-5.74,0-8.62Z" transform="translate(329 -304.89)"/><path class="cls-94" d="M-194.14,315.3c-.34-.47-.43-.53-.43-.59-.16-5.06-.23-4,3.76-4,11.33-.05,22.66,0,34,0H-154a4.44,4.44,0,0,1-2.76.46q-17.11,0-34.23,0c-.56,0-1.12,0-1.68,0-1.15-.07-1.57.49-1.51,1.58C-194.11,313.41-194.14,314.12-194.14,315.3Z" transform="translate(329 -304.89)"/><path class="cls-94" d="M-213,311.12h-39.88C-251.39,310.52-218.33,310.28-213,311.12Z" transform="translate(329 -304.89)"/><ellipse class="cls-95" cx="123.63" cy="76.97" rx="10.42" ry="0.15"/><ellipse class="cls-96" cx="124.74" cy="36.19" rx="10.09" ry="0.15"/><path class="cls-48" d="M-213.19,404.22h14.09v.23h-14.18Z" transform="translate(329 -304.89)"/><path class="cls-97" d="M-140.39,340.84c-.26.15-.53.44-.79.44a92.3,92.3,0,0,1-11.63-.44h12.42Z" transform="translate(329 -304.89)"/><ellipse class="cls-48" cx="180.49" cy="99.52" rx="8.05" ry="0.14"/><path class="cls-97" d="M-267.12,340.84h11.63c-.73.8-1.43.45-2,.47-3,.14-6-.17-9.05.18-.4.05-.46-.35-.52-.66Z" transform="translate(329 -304.89)"/><path class="cls-98" d="M-269,404.12h11.52c-.42.76-1,.49-1.42.49-2.62,0-5.25,0-7.87,0-.77,0-1.62.25-2.23-.51Z" transform="translate(329 -304.89)"/><path class="cls-99" d="M650.17,310.72H769.84V311H650.07Z" transform="translate(329 -304.89)"/><ellipse class="cls-95" cx="1033.02" cy="116.23" rx="0.13" ry="9.72"/><path class="cls-95" d="M704.17,355.39V368.5h-.24v-13.2Z" transform="translate(329 -304.89)"/><path class="cls-99" d="M-128.83,310.67h116.5a4.32,4.32,0,0,1-2.71.44q-55.65,0-111.3,0c-.84,0-1.78.32-2.51-.43Z" transform="translate(329 -304.89)"/><path class="cls-99" d="M-12.9,354.68H-72.57v-.23H-12.8Z" transform="translate(329 -304.89)"/><path class="cls-43" d="M-16.09,491.4c.8-.81,1.82-.45,2.74-.45q37.07,0,74.14,0,14.4,0,28.79,0a4.29,4.29,0,0,1,2.73.46H-16.09Z" transform="translate(329 -304.89)"/><path class="cls-55" d="M-48.24,523.53c.64-.73,1.49-.45,2.26-.45,5.27,0,10.56.2,15.82-.1,3.3-.18,6.61.57,9.91-.35,1.55-.43,3.09.54,4.72.46,3.9-.19,7.83-.22,11.72-.14,7.27.15,14.54.06,21.8.1,13.34.06,26.67,0,40,0a3.26,3.26,0,0,1,2.18.46H-48.24Z" transform="translate(329 -304.89)"/><path class="cls-47" d="M633.23,491.41c.79-.82,1.81-.45,2.73-.46q27.84,0,55.67,0h60a3.67,3.67,0,0,1,2.48.47Z" transform="translate(329 -304.89)"/><path class="cls-43" d="M53.05,531.25c-1.68,0-3.36,0-5,0H-55c.63-.83,1.35-.45,1.94-.45q51.8,0,103.6,0c.84,0,1.79-.31,2.48.5Z" transform="translate(329 -304.89)"/><path class="cls-48" d="M714.17,531.14H594.5v-.23H714.26Z" transform="translate(329 -304.89)"/><path class="cls-48" d="M378.83,491.47c0-.63.08-1.26.11-1.88.45.71.71,1.5,1.79,1.36a15.37,15.37,0,0,1,1.92,0h76.73a3.26,3.26,0,0,1-2.35.46H381.7c-1,0-1.92,0-2.88,0Z" transform="translate(329 -304.89)"/><path class="cls-55" d="M-305.55,518.88c0,.31.06.61.06.92,0,3.59-.35,3.3,3.44,3.25,6.15-.08,12.3,0,18.45-.1,4.94,0,9.9,0,14.85.11.48,0,1,0,1.44,0,1.6-.07,1.61-.08,1.33-1.62-.08-.47-.3-.93.2-1.43,1,.93.64,2,.42,3.06-.07.33-.46.43-.78.44-.56,0-1.12,0-1.68,0h-35.5c-.48,0-1,0-1.44,0a1,1,0,0,1-1.18-1.17v-3.54Z" transform="translate(329 -304.89)"/><path class="cls-51" d="M-233,488.14v1.16c0,2.08,0,2.11-2.17,2.11h-36.42c-2.15,0-2.16,0-2.19-2.09a12.65,12.65,0,0,1,.15-2.6,4.41,4.41,0,0,1,.32,2.35c.08,1.81.07,1.85,1.94,1.86,6.63,0,13.26,0,19.89,0h15.58c2.28,0,2.28,0,2.44-2.33a1.38,1.38,0,0,1,.15-.43Z" transform="translate(329 -304.89)"/><path class="cls-100" d="M-89.94,491.47l-25.17-.06q-13.32,0-26.62,0h-2.85a4.44,4.44,0,0,1,2.76-.46q24.09,0,48.19,0c3.39,0,3.14.25,3.14-3.07a9.43,9.43,0,0,1,.16-2.12c.52,1.89.19,3.83.37,5.73Z" transform="translate(329 -304.89)"/><ellipse class="cls-48" cx="709.11" cy="226.1" rx="56.58" ry="0.14"/><path class="cls-12" d="M-267.92,503.88c-1.24,0-2.23.86-3.36.36a2.5,2.5,0,0,0-.09.36c0,.62.77,1.36.19,1.78a4.79,4.79,0,0,1-2.44.74c-.9.06-1.12-.73-1.15-1.51,0-.38,0-.87-.43-1a1.09,1.09,0,0,0-1.23.53,2.33,2.33,0,0,1-1.53,1.34c-.66.2-1.16.31-1.71-.29a3.65,3.65,0,0,0-3.05-.93c.05,1.34,1.51.69,1.92,1.46-.19.66-.74.52-1.19.52-1.76,0-3.52,0-5.28,0s-2-.43-1.34-2a7.61,7.61,0,0,0,.4-3.05c0-.23,0-.61-.1-.67-2.25-1.13-.93-3.17-1.38-4.76a6.28,6.28,0,0,1,2.39.41c1.94.49,2.13,1,1.11,2.82-.45.8-1.13,1.55-.93,2.53.63.39.76-.1,1-.36.68-.72,1.31-1,1.79.18.22.51.67.56.94.21,1.53-2,3.18-.7,4.67-.1.83.33,1.43.73,2-.12s1-.76,1.81-.28,1.71,1,2.37-.32c.17-.35.76-.32,1.11-.19A5.87,5.87,0,0,1-267.92,503.88Z" transform="translate(329 -304.89)"/><path class="cls-12" d="M-254.17,503.79c0,1.16.45,2.34-1,2.88a3.51,3.51,0,0,1-3.82-1,2.9,2.9,0,0,0-1.71-1.46c-.95-.28-.73-.81,0-1.57,1.39-1.42,3.08-.65,4.63-.85.31,0,.81.24.32.75s-.06.89.08,1.31C-255.32,504.79-255.31,504.78-254.17,503.79Z" transform="translate(329 -304.89)"/><path class="cls-12" d="M-265.42,503.17c.23,1.44-.93,1.5-1.75,2,.77.35,1.59.17,2.31.53a1,1,0,0,0,1.49-.57c.28-.68,1.07-.67,1.53,0a1.58,1.58,0,0,1,.07,1.95.89.89,0,0,1-1.29-.14c-.66-.83-1.64-.47-2.42-.8a.9.9,0,0,0-1.23.36c-.73,1-1.79.79-2.83.67C-268.66,505.32-268.38,503-265.42,503.17Z" transform="translate(329 -304.89)"/><path class="cls-12" d="M-254.31,502.17c1.27-.23,2.47-.5,3.68-.65.86-.1,1.39.22,1.12,1.26a7.77,7.77,0,0,0-.15,4.44,13.78,13.78,0,0,1-3.68-.17,2.64,2.64,0,0,1,.43-1.95c1,0,.4,1,1.09,1.2,0-.32.07-.63.15-.94.72-2.8.72-2.8-2.27-2.75C-254,502.61-254.12,502.41-254.31,502.17Z" transform="translate(329 -304.89)"/><path class="cls-55" d="M-122.11,523.58l-51.57,0a15.24,15.24,0,0,1-2.61-.15,4.1,4.1,0,0,1,2.36-.32h37.85c3.67,0,7.33,0,11,0,2.41,0,2.41,0,2.44-2.33,0-.78,0-1.57,0-2.35l.51,0c0,1.74,0,3.49,0,5.23Z" transform="translate(329 -304.89)"/><path class="cls-43" d="M-214.66,491.24a6.72,6.72,0,0,1,2.77-.3c11.59,0,23.19,0,34.78,0,.87,0,2,.52,2.6-.61.08-.13.19-.54.44-.12a.79.79,0,0,1,0,.46.78.78,0,0,1-.8.73c-.4,0-.8,0-1.19,0h-37.42C-213.7,491.4-213.93,491.34-214.66,491.24Z" transform="translate(329 -304.89)"/><path class="cls-43" d="M768.52,491.45c.78-.86,1.8-.5,2.72-.5q23.85,0,47.7,0h1.44c2.37,0,2.37,0,2.4-2.38,0-.88,0-1.75.05-2.63,0-.06.09-.13.15-.2.08.09.24.18.24.27,0,6.68.95,5.35-5.08,5.38-16.54.08-33.08.05-49.62.06Z" transform="translate(329 -304.89)"/><path class="cls-55" d="M736.37,523.56c.7-.8,1.64-.48,2.48-.48,7.28,0,14.55,0,21.83,0h26.81c.56,0,1.12,0,1.68,0,1,.05,1.49-.37,1.46-1.4a18.36,18.36,0,0,1,.16-3.31,12.41,12.41,0,0,1,.29,4.07c0,.82-.49,1.11-1.23,1.11h-1.92l-51.56,0Z" transform="translate(329 -304.89)"/><path class="cls-101" d="M-70.65,363.93h49.11v.24H-70.75Z" transform="translate(329 -304.89)"/><path class="cls-102" d="M-246.65,520.65c0,1.44.64,1.9,2,2.08a28.05,28.05,0,0,0,3.55.33c7.9,0,15.79,0,23.69,0a16.34,16.34,0,0,0,4.51-.32c1.3-.36,2.61.46,4,.37,2.22-.15,2.23-.06,2.26-2.31a4.77,4.77,0,0,1,.44-2.39c0,1.39,0,2.78,0,4.17,0,.7-.49.95-1.13.95l-1.68,0h-35.48C-247,523.52-247,523.52-246.65,520.65Z" transform="translate(329 -304.89)"/><ellipse class="cls-95" cx="26.38" cy="119.13" rx="8.06" ry="0.16"/><path class="cls-99" d="M-213.34,531.22H-254l0-.48h36.34c.47,0,.95,0,1.43,0,2.28-.1,2.14.54,2.58-2.28.57.33.26.89.31,1.34a13.59,13.59,0,0,1,0,1.43Z" transform="translate(329 -304.89)"/><path class="cls-103" d="M-37.37,380.58H-70.65v-.24h33.37Z" transform="translate(329 -304.89)"/><path class="cls-9" d="M858.45,384.75a37.28,37.28,0,0,0-.15-9.95,16.75,16.75,0,0,0-2-5.84,11.77,11.77,0,0,0-9.31-5.56,34.53,34.53,0,0,0-4.07-.15c-1.16,0-1.55-.48-1.51-1.58,0-1.68,0-3.35,0-5,0-.87.3-1.34,1.24-1.32,4.39.12,8.79-.26,13.17.26s7.35,2.83,8.64,6.91a25.41,25.41,0,0,1-.55,17.36,8.86,8.86,0,0,1-4.41,4.86A1.07,1.07,0,0,1,858.45,384.75Z" transform="translate(329 -304.89)"/><path class="cls-14" d="M857,380c-.08,1.35-.15,2.71-.24,4.06-.09,1.19-.59,2-2,1.82-.24,0-.48,0-.72,0-2.77.06-2.79.06-3.31-2.63-.66-3.49-2-6.54-5-8.71a8.44,8.44,0,0,0-3-1.49c-1.18-.29-1.48-1-1.44-2.1.07-1.59,0-3.19,0-4.79,0-.6.14-1.16.87-1.18,4.4-.11,8.72.05,11.81,3.87a14.33,14.33,0,0,1,2.78,8c.1,1,0,2.08,0,3.12Z" transform="translate(329 -304.89)"/><path class="cls-104" d="M841.37,374.5a8.34,8.34,0,0,1,5.4,3.42,13,13,0,0,1,2.47,6.63c.08.73,0,1.29-.92,1.29q-3,0-6,0c-.7,0-1-.43-1-1.08Z" transform="translate(329 -304.89)"/><path class="cls-9" d="M202.74,427.58c2.57-11,2.4-21.86,2.21-32.71-.12-6.62-.38-13.25-2.21-19.7-1.3-4.57-3.37-8.63-7.55-11.27A21.11,21.11,0,0,0,184.92,361a29.46,29.46,0,0,0-9.06.89,12.37,12.37,0,0,1,6.71-7,23.76,23.76,0,0,1,18.87.09c3.77,1.58,5.95,4.72,7.42,8.39a40.53,40.53,0,0,1,2.49,12.16,212.7,212.7,0,0,1,0,31.83,41.26,41.26,0,0,1-2.84,13.29A13.29,13.29,0,0,1,202.74,427.58Z" transform="translate(329 -304.89)"/><path class="cls-8" d="M196.68,429.8c.17-2.14.4-4.27.5-6.41.52-11.1.73-22.2-.64-33.26a36.78,36.78,0,0,0-2.34-9.27c-2.61-6.51-7.53-9.9-14.36-10.74a25.22,25.22,0,0,0-6.42-.18,12.7,12.7,0,0,1,1.25-5.41c.26-.66,1-.81,1.59-.95a26.26,26.26,0,0,1,15.57.56c4.18,1.54,6.74,4.72,8.35,8.75a41.38,41.38,0,0,1,2.54,12.39,215.17,215.17,0,0,1,0,31.61,49.73,49.73,0,0,1-1.62,9.92C200.4,429.36,199.84,429.73,196.68,429.8Z" transform="translate(329 -304.89)"/><path class="cls-19" d="M195.9,408.58c-.1,7.56-.19,13.71-.87,19.83-.21,1.92-.27,2-2.15,2.06-5,.09-4,.09-3.86-3.89a190,190,0,0,0-.75-28.23,37.17,37.17,0,0,0-2.51-10.2,16,16,0,0,0-11.4-10c-.47-.11-.93-.23-1.4-.36a.89.89,0,0,1-.72-1.06c0-.47.13-.95.17-1.42.33-3.89-.11-3.76,4.31-3.67a27.19,27.19,0,0,1,4.76.52,14.56,14.56,0,0,1,11.18,9.47,45,45,0,0,1,2.76,14.27C195.71,400.56,195.79,405.28,195.9,408.58Z" transform="translate(329 -304.89)"/><path class="cls-21" d="M187.27,417.38c0,3.59,0,7.18,0,10.78,0,1.93-.27,2-2.18,1.48-.54-.16-1-.41-1.58-.55-1.59-.41-2-1.41-2-3a135,135,0,0,0-.85-18.64c-.55-4.53-1.42-9-3.74-13a13.51,13.51,0,0,0-4-4.7,2.61,2.61,0,0,1-1.22-2.64c.15-2,.2-4,.33-6,.11-1.52.33-1.74,1.74-1.38a14.11,14.11,0,0,1,8,4.92,23,23,0,0,1,4.19,10.08A105.68,105.68,0,0,1,187.4,414v3.36Z" transform="translate(329 -304.89)"/><path class="cls-18" d="M179.42,426.57a16.09,16.09,0,0,1-4.56-6.82,45.56,45.56,0,0,1-2.7-13.79c-.32-4.45-.56-8.92-.49-13.39,0-.37.05-.74.08-1.28a5.38,5.38,0,0,1,2.42,2.13c2.78,3.59,3.85,7.84,4.49,12.21a129.68,129.68,0,0,1,1.06,20.28C179.72,426,179.6,426.18,179.42,426.57Z" transform="translate(329 -304.89)"/><path class="cls-10" d="M-199.22,392.89c0,2.47.06,4.94,0,7.4-.06,1.73-.15,1.8-1.76,1.78-5.93-.07-4.73.87-4.75-4.65,0-1.19,0-2.39.08-3.58a1.49,1.49,0,0,0-1.7-1.78c-1.12,0-2.24-.06-3.35,0s-1.77-.3-1.68-1.61c.11-1.59.12-3.18.09-4.78,0-1.09.36-1.59,1.52-1.57q5.25.06,10.52,0c1.22,0,1.44.59,1.42,1.64-.05,2.39,0,4.78,0,7.16Z" transform="translate(329 -304.89)"/><path class="cls-105" d="M-207.56,397.78v1c-.07,3.58-.36,3.8-4,3.35-.8-.09-1.14-.42-1.11-1.19.08-2.07.15-4.13.23-6.2,0-.42.16-.89.59-.91a30.27,30.27,0,0,1,3.81,0c.57,0,.59.64.59,1.13v2.86Z" transform="translate(329 -304.89)"/></svg>