<svg xmlns="http://www.w3.org/2000/svg" width="147.922" height="144.59" viewBox="0 0 147.922 144.59">
  <g id="Group_8" data-name="Group 8" transform="translate(0 62.141)" opacity="0.306">
    <path id="Path_7" data-name="Path 7" d="M70.752,5.469A73.733,73.733,0,0,0,93.872-4.122H14.793A73.717,73.717,0,0,0,37.914,5.469Z" transform="translate(19.628 76.98)" fill="#beb5eb"/>
    <path id="Path_8" data-name="Path 8" d="M5.967-12.411a74.38,74.38,0,0,0,8.274,9.592h103.6a74.5,74.5,0,0,0,8.275-9.592Z" transform="translate(7.918 65.982)" fill="#beb5eb"/>
    <path id="Path_9" data-name="Path 9" d="M1.658-20.7a73.771,73.771,0,0,0,4.079,9.592H137.785a73.8,73.8,0,0,0,4.077-9.592Z" transform="translate(2.2 54.986)" fill="#beb5eb"/>
    <path id="Path_10" data-name="Path 10" d="M0-28.987A74.078,74.078,0,0,0,1.248-19.4H146.673a74.366,74.366,0,0,0,1.249-9.592Z" transform="translate(0 43.988)" fill="#beb5eb"/>
    <path id="Path_11" data-name="Path 11" d="M147.922-27.684a74.363,74.363,0,0,0-1.249-9.592H1.248A74.075,74.075,0,0,0,0-27.684Z" transform="translate(0 32.992)" fill="#beb5eb"/>
    <path id="Path_12" data-name="Path 12" d="M5.737-45.564a73.8,73.8,0,0,0-4.079,9.593h140.2a73.827,73.827,0,0,0-4.077-9.593Z" transform="translate(2.2 21.994)" fill="#beb5eb"/>
    <path id="Path_13" data-name="Path 13" d="M5.967-44.26H126.12a74.592,74.592,0,0,0-8.275-9.592H14.241A74.473,74.473,0,0,0,5.967-44.26Z" transform="translate(7.918 10.997)" fill="#beb5eb"/>
    <path id="Path_14" data-name="Path 14" d="M37.914-62.141a73.683,73.683,0,0,0-23.121,9.593H93.872a73.7,73.7,0,0,0-23.121-9.593Z" transform="translate(19.628 0)" fill="#beb5eb"/>
  </g>
</svg>
