<svg xmlns="http://www.w3.org/2000/svg" width="135.333" height="235.036" viewBox="0 0 135.333 235.036">
  <g id="Group_10" data-name="Group 10" transform="translate(-3.571 76.165)">
    <path id="Path_45" data-name="Path 45" d="M135.486,3.682,114.078-11.151,92.669,3.682,71.237-11.151,49.828,3.682,28.4-11.151,6.988,3.682" transform="translate(0 147.891)" fill="none" stroke="#b2afe8" stroke-miterlimit="2" stroke-width="12"/>
    <path id="Path_46" data-name="Path 46" d="M135.486-10.747,114.078-25.58,92.669-10.747,71.237-25.58,49.828-10.747,28.4-25.58,6.988-10.747" transform="translate(0 110.918)" fill="none" stroke="#b2afe8" stroke-miterlimit="2" stroke-width="12"/>
    <path id="Path_47" data-name="Path 47" d="M135.486-25.177,114.078-40.008,92.669-25.177,71.237-40.008,49.828-25.177,28.4-40.008,6.988-25.177" transform="translate(0 73.946)" fill="none" stroke="#b2afe8" stroke-miterlimit="2" stroke-width="12"/>
    <path id="Path_48" data-name="Path 48" d="M135.486-39.6,114.078-54.437,92.669-39.6,71.237-54.437,49.828-39.6,28.4-54.437,6.988-39.6" transform="translate(0 36.973)" fill="none" stroke="#b2afe8" stroke-miterlimit="2" stroke-width="12"/>
    <path id="Path_49" data-name="Path 49" d="M135.486-54.032,114.078-68.866,92.669-54.032,71.237-68.866,49.828-54.032,28.4-68.866,6.988-54.032" fill="none" stroke="#b2afe8" stroke-miterlimit="2" stroke-width="12"/>
  </g>
</svg>
