<svg id="github_2_" data-name="github (2)" xmlns="http://www.w3.org/2000/svg"
     width="25.115" height="24.16" viewBox="0 0 25.115 24.16">
  <g id="Group_18" data-name="Group 18" transform="translate(0 0)">
    <path id="Path_56" data-name="Path 56"
          d="M12.512,5.481c-6.894,0-12.8,5.388-12.8,12.311A12.733,12.733,0,0,0,8.572,29.612c.624.115.492-.16.492-.492,0-.3.006-.924,0-1.97-3.473.757-3.94-1.97-3.94-1.97C4.558,23.731,3.647,23.7,3.647,23.7c-1.135-.777,0-.985,0-.985a2.817,2.817,0,0,1,1.97,1.477,2.42,2.42,0,0,0,3.447.985,2.255,2.255,0,0,1,.985-1.477c-2.772-.317-5.909-1.6-5.909-6.4a5.222,5.222,0,0,1,1.477-3.447,4.622,4.622,0,0,1,0-3.447s1.062-.144,3.447,1.477a14.494,14.494,0,0,1,3.447-.492,10.747,10.747,0,0,1,2.955.492c2.383-1.622,3.447-1.477,3.447-1.477a4.621,4.621,0,0,1,0,3.447A5.215,5.215,0,0,1,20.391,17.3c0,4.815-3.128,6.091-5.91,6.4a2.241,2.241,0,0,1,.985,1.97v3.447c0,.336.351.616.985.492a12.3,12.3,0,0,0,8.372-11.819A12.173,12.173,0,0,0,12.512,5.481Z"
          transform="translate(0.292 -5.481)" fill="#FFFFFFD9"/>
  </g>
</svg>
