<svg xmlns="http://www.w3.org/2000/svg" width="19.62" height="19.455" viewBox="0 0 19.62 19.455">
  <path id="Path_54" data-name="Path 54" d="M223.476,238.729l-6.113-5.849c.018-.029.039-.057.057-.087l.078-.127a7.166,7.166,0,0,0-2.727-9.891c-.058-.032-.114-.069-.172-.1-.191-.1-.386-.188-.583-.269-.1-.04-.194-.071-.292-.106s-.21-.077-.317-.11-.241-.067-.362-.1c-.082-.021-.164-.042-.246-.06-.14-.03-.28-.055-.421-.077l-.179-.026c-.161-.02-.322-.037-.483-.047l-.092,0a7.336,7.336,0,0,0-3.4.656l-.1.047c-.142.068-.281.141-.419.218-.064.036-.128.074-.191.112-.114.068-.226.139-.337.214-.095.065-.187.134-.279.2s-.162.119-.241.184c-.172.143-.341.292-.5.452-.111.11-.216.225-.319.341l-.061.071a7.232,7.232,0,0,0-.845,1.216s-.006.008-.009.012a7.183,7.183,0,0,0,1.234,8.533,7.244,7.244,0,0,0,9,.969l.058-.038,5.848,6.075a.6.6,0,0,0,.378.176l.044,0a.582.582,0,0,0,.414-.171l1.6-1.592a.58.58,0,0,0-.008-.831Zm-15.352-6.559a.616.616,0,0,1-.871.872,5.631,5.631,0,0,1,0-7.981.616.616,0,0,1,.871.872,4.4,4.4,0,0,0,0,6.237Zm0,0" transform="translate(-204.035 -221.868)" fill="#33f8a6"/>
</svg>
