<?xml version="1.0" encoding="UTF-8" standalone="no"?>
<!DOCTYPE svg PUBLIC "-//W3C//DTD SVG 1.1//EN" "http://www.w3.org/Graphics/SVG/1.1/DTD/svg11.dtd">
<svg width="100%" height="100%" viewBox="0 0 3594 1080" version="1.1" xmlns="http://www.w3.org/2000/svg" xmlns:xlink="http://www.w3.org/1999/xlink" xml:space="preserve" xmlns:serif="http://www.serif.com/" style="fill-rule:evenodd;clip-rule:evenodd;stroke-linejoin:round;stroke-miterlimit:2;">
    <g transform="matrix(1,0,0,1,-7847,0)">
        <g id="Artboard5" transform="matrix(3.22911,0,0,0.97035,8515.43,1686.47)">
            <rect x="-207" y="-1738" width="1113" height="1113" style="fill:none;"/>
            <g transform="matrix(0.300501,0,0,1,-144.796,0)">
                <g transform="matrix(3.11268,0,0,3.11268,-655.222,-2022.12)">
                    <path d="M353.538,354.317C263.762,393.441 130.813,279.991 199.565,154.035C170.999,184.228 153.269,225.07 153.269,269.976C153.269,363.401 229.233,438.969 322.777,438.969C408.632,438.969 488.685,358.232 468.589,271.703C457.451,224.126 416.952,191.423 365.622,209.74C437.517,236.028 415.065,327.404 353.538,354.317Z" style="fill:url(#_Radial1);"/>
                </g>
                <g transform="matrix(3.11268,0,0,3.11268,-655.222,-2022.12)">
                    <path d="M353.849,235.706C345.689,229.605 338,226.796 341.766,214.894C351.03,185.325 394.347,181.259 419.309,191.275C474.872,213.65 494.335,282.649 478.636,336.486C487.428,316.134 492.298,293.609 492.298,269.976C492.298,186.104 433.592,123.989 345.066,138.23C303.005,144.952 273.337,172.34 263.13,205.353C251.044,244.157 269.883,300.652 313.043,306.281C354.323,311.763 394.2,265.911 353.849,235.706Z" style="fill:url(#_Linear2);"/>
                </g>
                <g transform="matrix(3.11268,0,0,3.11268,-655.222,-2022.12)">
                    <path d="M372.378,327.093C268.631,368.408 209.925,264.817 247.592,184.391C273.174,129.781 338.315,105.207 391.527,115.533C360.915,101.925 326.391,98.014 293.271,103.641C221.226,116.163 178.689,182.516 196.423,253.24C200.348,269.194 207.726,284.689 218.868,298.927C254.657,345.397 320.418,365.586 372.378,327.093Z" style="fill:url(#_Linear3);"/>
                </g>
            </g>
            <g transform="matrix(0.204002,0,0,0.678873,-910.128,-1520.76)">
                <path d="M5646.34,531.558L5646.34,435.637L5521.28,435.637L5521.28,338.794C5521.28,321.27 5524.63,299.134 5536.91,283.455C5558.13,255.785 5592.74,253.018 5613.96,253.018C5637.4,253.018 5670.9,255.785 5692.12,283.455C5705.52,300.979 5706.63,320.347 5706.63,338.794L5706.63,835L5842.86,835L5842.86,336.027C5842.86,306.513 5846.2,263.164 5809.36,217.97C5764.69,162.631 5675.37,151.564 5613.96,151.564C5521.28,151.564 5456.52,178.311 5420.79,217.97C5383.94,259.475 5385.06,294.523 5385.06,336.027L5385.06,435.637L5333.7,435.637L5333.7,531.558L5385.06,531.558L5385.06,835L5521.28,835L5521.28,531.558L5646.34,531.558Z" style="fill-rule:nonzero;stroke:black;stroke-width:4.05px;"/>
                <path d="M6224.72,422.725C6133.16,422.725 6070.64,447.627 6029.32,478.986C5981.31,514.956 5947.81,570.295 5947.81,635.78C5947.81,700.342 5981.31,755.681 6029.32,791.651C6070.64,823.01 6133.16,847.912 6224.72,847.912C6316.28,847.912 6378.81,823.01 6420.12,791.651C6468.14,755.681 6501.63,700.342 6501.63,635.78C6501.63,570.295 6468.14,514.956 6420.12,478.986C6378.81,447.627 6316.28,422.725 6224.72,422.725ZM6224.72,748.302C6145.44,748.302 6088.5,696.653 6088.5,635.78C6088.5,573.062 6146.56,522.335 6224.72,522.335C6302.88,522.335 6360.94,573.062 6360.94,635.78C6360.94,696.653 6304,748.302 6224.72,748.302Z" style="fill-rule:nonzero;stroke:black;stroke-width:4.05px;"/>
                <path d="M6964.62,599.809L7091.91,835L7158.9,835L7404.55,435.637L7252.7,435.637L7125.41,666.216L6995.89,435.637L6933.36,435.637L6803.84,666.216L6676.55,435.637L6524.69,435.637L6770.34,835L6837.33,835L6964.62,599.809Z" style="fill-rule:nonzero;stroke:black;stroke-width:4.05px;"/>
                <path d="M7782.68,465.151C7721.27,426.414 7664.32,422.725 7628.6,422.725C7589.52,422.725 7540.39,426.414 7502.42,451.316C7474.51,470.685 7452.18,502.966 7452.18,541.703C7452.18,573.984 7466.69,598.887 7489.02,618.256C7518.06,643.158 7558.25,656.071 7592.86,666.216L7624.13,675.439C7641.99,680.973 7666.56,691.119 7666.56,716.021C7666.56,743.691 7637.53,759.37 7599.56,759.37C7559.37,759.37 7519.17,739.079 7492.37,713.254L7420.91,781.506C7451.06,808.253 7508.01,847.912 7608.5,847.912C7667.68,847.912 7714.57,835 7753.65,805.486C7792.73,775.972 7807.25,740.001 7807.25,704.031C7807.25,678.206 7797.2,654.226 7782.68,637.624C7754.77,606.266 7697.82,590.586 7659.86,580.441L7627.48,572.14C7589.52,561.994 7583.93,546.315 7583.93,536.169C7583.93,516.801 7604.03,503.888 7636.41,503.888C7650.93,503.888 7683.31,505.733 7715.69,530.636L7782.68,465.151Z" style="fill-rule:nonzero;stroke:black;stroke-width:4.05px;"/>
                <path d="M8252.76,706.798C8230.43,739.079 8191.35,759.37 8139.99,759.37C8087.51,759.37 8057.36,738.157 8042.84,721.555C8027.21,704.031 8019.4,678.206 8019.4,654.226L8381.16,654.226L8381.16,645.003C8381.16,601.654 8374.47,538.936 8323.1,488.209C8289.61,455.006 8232.66,422.725 8134.4,422.725C8076.34,422.725 8009.35,432.87 7952.4,478.986C7917.79,507.578 7878.71,556.46 7878.71,635.78C7878.71,698.497 7901.04,750.147 7954.63,791.651C8002.65,829.466 8061.82,847.912 8139.99,847.912C8308.59,847.912 8363.3,752.914 8377.82,723.4L8252.76,706.798ZM8023.86,582.285C8035.03,528.791 8087.51,502.044 8137.75,502.044C8188,502.044 8241.59,527.869 8252.76,582.285L8023.86,582.285Z" style="fill-rule:nonzero;stroke:black;stroke-width:4.05px;"/>
                <path d="M8486.12,835L8622.34,835L8622.34,643.158C8622.34,615.489 8623.46,581.363 8649.14,554.616C8675.94,526.946 8713.9,522.335 8739.58,522.335C8767.5,522.335 8785.36,526.946 8803.23,537.092L8821.09,431.948C8805.46,427.336 8786.48,422.725 8763.03,422.725C8730.65,422.725 8703.85,429.181 8682.64,440.249C8672.59,444.86 8643.56,461.462 8622.34,495.588L8622.34,435.637L8486.12,435.637L8486.12,835Z" style="fill-rule:nonzero;stroke:black;stroke-width:4.05px;"/>
            </g>
        </g>
    </g>
    <defs>
        <radialGradient id="_Radial1" cx="0" cy="0" r="1" gradientUnits="userSpaceOnUse" gradientTransform="matrix(-274.908,160.729,-160.729,-274.908,461.419,190.933)"><stop offset="0" style="stop-color:rgb(189,214,251);stop-opacity:1"/><stop offset="0.05" style="stop-color:rgb(168,204,248);stop-opacity:1"/><stop offset="0.1" style="stop-color:rgb(103,173,239);stop-opacity:1"/><stop offset="0.84" style="stop-color:rgb(217,199,249);stop-opacity:1"/><stop offset="1" style="stop-color:rgb(197,230,251);stop-opacity:1"/></radialGradient>
        <linearGradient id="_Linear2" x1="0" y1="0" x2="1" y2="0" gradientUnits="userSpaceOnUse" gradientTransform="matrix(-148.366,104.804,-104.804,-148.366,492.298,165.258)"><stop offset="0" style="stop-color:rgb(143,213,227);stop-opacity:1"/><stop offset="0.01" style="stop-color:rgb(56,198,244);stop-opacity:1"/><stop offset="1" style="stop-color:rgb(155,222,250);stop-opacity:1"/></linearGradient>
        <linearGradient id="_Linear3" x1="0" y1="0" x2="1" y2="0" gradientUnits="userSpaceOnUse" gradientTransform="matrix(56.1279,257.262,-257.262,56.1279,235.838,101.155)"><stop offset="0" style="stop-color:rgb(255,192,0);stop-opacity:1"/><stop offset="1" style="stop-color:rgb(255,221,98);stop-opacity:1"/></linearGradient>
    </defs>
</svg>
