<svg xmlns="http://www.w3.org/2000/svg" width="19.604" height="19.528" viewBox="0 0 19.604 19.528">
  <g id="web-development" transform="translate(0 -1)">
    <path id="Path_321" data-name="Path 321" d="M19.6,5.595V2.723A1.725,1.725,0,0,0,17.881,1H1.723A1.725,1.725,0,0,0,0,2.723V5.595ZM13.248,3.3h3.446a.574.574,0,1,1,0,1.149H13.248a.574.574,0,0,1,0-1.149ZM7.5,3.3a.574.574,0,1,1-.574.574A.574.574,0,0,1,7.5,3.3Zm-2.3,0a.574.574,0,1,1-.574.574A.574.574,0,0,1,5.207,3.3Zm-2.3,0a.574.574,0,1,1-.574.574A.574.574,0,0,1,2.91,3.3Z" fill="#33f8a6"/>
    <path id="Path_322" data-name="Path 322" d="M0,151v12.061a1.725,1.725,0,0,0,1.723,1.723H17.881a1.725,1.725,0,0,0,1.723-1.723V151Zm6.715,8.167a.574.574,0,1,1-.718.9l-2.872-2.3a.575.575,0,0,1,0-.9L6,154.572a.574.574,0,1,1,.718.9L4.4,157.318Zm5.338-5.643-3.446,8.041a.574.574,0,0,1-1.056-.453L11,153.071a.574.574,0,1,1,1.056.453Zm4.426,4.243-2.872,2.3a.574.574,0,1,1-.718-.9l2.311-1.849-2.311-1.849a.574.574,0,1,1,.718-.9l2.872,2.3A.575.575,0,0,1,16.479,157.766Z" transform="translate(0 -144.257)" fill="#33f8a6"/>
  </g>
</svg>
