<svg id="twitter" xmlns="http://www.w3.org/2000/svg" width="24.653" height="24.16" viewBox="0 0 24.653 24.16">
  <g id="Group_17" data-name="Group 17" transform="translate(0 0)">
    <path id="Path_55" data-name="Path 55" d="M12.327.152A12.4,12.4,0,0,0,0,12.479c0,6.749,5.577,11.834,12.327,11.834s12.327-5.084,12.327-11.834A12.4,12.4,0,0,0,12.327.152ZM17.75,9.52c.005.121,0,.371,0,.493A7.747,7.747,0,0,1,9.861,17.9a8.567,8.567,0,0,1-4.438-1.479c.22.026.266.493.493.493a5.788,5.788,0,0,0,3.451-1.479A2.632,2.632,0,0,1,6.9,13.465a2.5,2.5,0,0,0,.493,0,5.029,5.029,0,0,0,.986,0,3.228,3.228,0,0,1-2.465-2.958c0-.012,0,.011,0,0A3.861,3.861,0,0,0,7.4,11,3.259,3.259,0,0,1,5.917,8.534,3.143,3.143,0,0,1,6.41,7.055a8.25,8.25,0,0,0,5.917,2.958c-.048-.207-.493-.272-.493-.493a3.065,3.065,0,0,1,2.958-2.958,2.723,2.723,0,0,1,1.972.986,6.439,6.439,0,0,0,1.972-.493,3.121,3.121,0,0,1-1.479,1.479,8.236,8.236,0,0,0,1.972-.493A6.057,6.057,0,0,1,17.75,9.52Z" transform="translate(0 -0.152)" fill="#b8b2ea"/>
  </g>
</svg>
