<svg id="wallet_2_" data-name="wallet (2)" xmlns="http://www.w3.org/2000/svg" width="21.227" height="21.228" viewBox="0 0 21.227 21.228">
  <path id="Path_323" data-name="Path 323" d="M63.691,3.223A2.075,2.075,0,0,1,65.764,1.15h.717l-.216-.6A.828.828,0,0,0,65.2.05L57.952,2.689a.829.829,0,0,0-.495,1.064L57.84,4.8h5.851Z" transform="translate(-55.026 0)" fill="#33f8a6"/>
  <path id="Path_324" data-name="Path 324" d="M239.829,57.745a.829.829,0,0,0-.829.829V60.15h7.256V58.574a.829.829,0,0,0-.829-.829Z" transform="translate(-229.091 -55.351)" fill="#33f8a6"/>
  <path id="Path_325" data-name="Path 325" d="M19.362,156.462h-2.9a3.109,3.109,0,1,1,0-6.219h2.9V147.4a1.658,1.658,0,0,0-1.658-1.658H1.658A1.658,1.658,0,0,0,0,147.4v11.868a1.658,1.658,0,0,0,1.658,1.658H17.7a1.658,1.658,0,0,0,1.658-1.658Z" transform="translate(0 -139.702)" fill="#33f8a6"/>
  <path id="Path_326" data-name="Path 326" d="M358.012,284.245h-4.146a1.866,1.866,0,1,0,0,3.731h4.146a.623.623,0,0,0,.622-.622v-2.488A.623.623,0,0,0,358.012,284.245Zm-4.146,2.488a.622.622,0,1,1,.622-.622A.622.622,0,0,1,353.866,286.733Z" transform="translate(-337.406 -272.46)" fill="#33f8a6"/>
</svg>
